<svg xmlns="http://www.w3.org/2000/svg" width="44" height="44" viewBox="0 0 44 44">
    <g fill="none" fill-rule="evenodd">
        <path d="M0 0h44v44H0z"/>
        <circle cx="22" cy="22" r="21" stroke="#FFF" stroke-width="2"/>
        <path fill="#FFF" d="M26.836 22.382L16.146 32.7l-.014.013-.308.287 9.416-5.278 4.503-2.54-.142-.124-2.765-2.676zm3.46-3.327l-.064.062h-.013l-.103.113-1.312 1.263-1.402 1.351-.027.013v.011l-.102.089 2.843 2.75.103.114h.013l.064.062 4.31-2.426c.471-.265.5-.62.192-.863-.021-.018-.051-.034-.077-.05l-.077-.05c-.425-.223-3.871-2.171-4.348-2.44zM15.13 11.1a.693.693 0 0 0-.129.426v21.087c0 .112.025.21.065.286l.013-.01h.012l.142-.151 11.166-10.781-.09-.089h-.012l-.04-.024-10.96-10.594-.115-.112-.053-.038h.001zm.772-.1l.219.2.025.026h.013l10.678 10.318 1.132-1.089L29.6 18.88l.142-.125-4.503-2.538-9.223-5.178c-.013-.007-.027-.007-.04-.012-.025-.014-.051-.015-.076-.026z"/>
    </g>
</svg>
