<svg xmlns="http://www.w3.org/2000/svg" width="44" height="44" viewBox="0 0 44 44">
    <g fill="none" fill-rule="evenodd">
        <path d="M0 0h44v44H0z"/>
        <circle cx="22" cy="22" r="21" stroke="#FFF" stroke-width="2"/>
        <path fill="#FFF" d="M31 26.141c-.49 1.145-.727 1.654-1.36 2.668-.883 1.413-2.13 3.174-3.674 3.187-1.37.014-1.723-.938-3.585-.926-1.86.01-2.25.943-3.621.93-1.544-.014-2.724-1.604-3.608-3.018-2.47-3.95-2.73-8.587-1.206-11.054 1.084-1.751 2.792-2.775 4.4-2.775 1.634 0 2.663.941 4.016.941 1.312 0 2.111-.944 4.003-.944 1.431 0 2.946.819 4.025 2.231-3.537 2.037-2.963 7.34.61 8.76zm-6.068-12.57c.686-.926 1.208-2.235 1.02-3.571-1.124.08-2.438.832-3.204 1.81-.697.885-1.271 2.203-1.048 3.484 1.229.04 2.496-.73 3.232-1.723z"/>
    </g>
</svg>
