<svg width="31" height="32" viewBox="0 0 31 32" fill="none" xmlns="http://www.w3.org/2000/svg">
<path d="M15.7056 0.979492C7.38836 0.979492 0.638428 7.71162 0.638428 16.0288C0.638428 24.346 7.37055 31.0781 15.6878 31.0781C24.005 31.0781 30.7371 24.346 30.7371 16.0288C30.7549 7.71162 24.005 0.979492 15.7056 0.979492ZM8.172 16.296C7.76237 15.7617 7.53084 14.9958 7.53084 14.2478C7.53084 13.4998 7.72675 12.734 8.172 12.1819C9.27621 10.7927 11.2531 8.29934 11.2531 8.29934H15.7946L11.6449 13.4998C11.3065 13.9273 11.3065 14.5328 11.6449 14.9602L15.7768 20.1785H11.2531C11.2531 20.1785 9.27621 17.6673 8.172 16.296ZM23.2213 19.8757C22.1171 21.2649 20.1402 23.7583 20.1402 23.7583H15.6165L19.7484 18.5578C20.0868 18.1304 20.0868 17.5248 19.7484 17.0974L15.6165 11.8791H20.158C20.158 11.8791 22.1349 14.3903 23.2213 15.7617C23.6488 16.296 23.8625 17.0618 23.8625 17.8098C23.8625 18.5756 23.6666 19.3236 23.2213 19.8757Z" fill="white"/>
</svg>
