<svg xmlns="http://www.w3.org/2000/svg" xmlns:xlink="http://www.w3.org/1999/xlink" width="44" height="28" viewBox="0 0 44 28">
    <defs>
        <circle id="a" cx="20" cy="12" r="12"/>
        <circle id="b" cx="12" cy="12" r="12"/>
    </defs>
    <g fill="none" fill-rule="evenodd">
        <path d="M4 2h24v24H4z"/>
        <g transform="translate(2 2)">
            <circle cx="28" cy="12" r="13" stroke="#4640F2" stroke-width="2"/>
            <circle cx="28" cy="12" r="11.455" stroke="#FFF" stroke-linejoin="square" stroke-width="1.091"/>
        </g>
        <g transform="translate(2 2)">
            <use fill="#4640F2" xlink:href="#a"/>
            <circle cx="20" cy="12" r="13" stroke="#4640F2" stroke-width="2"/>
            <circle cx="20" cy="12" r="11.455" stroke="#FFF" stroke-linejoin="square" stroke-width="1.091"/>
        </g>
        <g transform="translate(2 2)">
            <use fill="#4640F2" xlink:href="#b"/>
            <circle cx="12" cy="12" r="13" stroke="#4640F2" stroke-width="2"/>
            <circle cx="12" cy="12" r="11.455" stroke="#FFF" stroke-linejoin="square" stroke-width="1.091"/>
        </g>
        <path fill="#FFF" d="M18.65 11.189a2.46 2.46 0 0 0 1.033-1.371c-.454.284-.956.49-1.492.601a2.288 2.288 0 0 0-1.715-.783c-1.298 0-2.35 1.11-2.35 2.479 0 .194.02.383.06.564-1.952-.103-3.683-1.09-4.843-2.59a2.577 2.577 0 0 0-.318 1.247c0 .86.415 1.618 1.045 2.064a2.266 2.266 0 0 1-1.065-.31v.03c0 1.201.81 2.203 1.886 2.43a2.21 2.21 0 0 1-1.062.043c.3.985 1.167 1.702 2.196 1.721a4.562 4.562 0 0 1-3.48 1.027 6.408 6.408 0 0 0 3.603 1.114c4.323 0 6.686-3.777 6.686-7.052 0-.108-.002-.215-.007-.321.46-.35.859-.786 1.173-1.283-.422.197-.875.33-1.35.39z"/>
    </g>
</svg>
