<svg id="Layer_1" data-name="Layer 1" xmlns="http://www.w3.org/2000/svg" width="24" height="24" viewBox="0 0 24 24"><defs><style>.cls-1{fill:aqua;}</style></defs><path class="cls-1" d="M20.63,8.7c0,.19,0,.38,0,.57A12.58,12.58,0,0,1,8,21.94a12.63,12.63,0,0,1-6.83-2A9.28,9.28,0,0,0,2.21,20a8.94,8.94,0,0,0,5.53-1.9A4.47,4.47,0,0,1,3.58,15a3.92,3.92,0,0,0,.84.08,4.47,4.47,0,0,0,1.17-.15A4.46,4.46,0,0,1,2,10.56v-.05a4.45,4.45,0,0,0,2,.55A4.46,4.46,0,0,1,2.66,5.12a12.65,12.65,0,0,0,9.18,4.65,4.17,4.17,0,0,1-.12-1,4.46,4.46,0,0,1,7.7-3,8.89,8.89,0,0,0,2.83-1.08,4.5,4.5,0,0,1-2,2.47,8.84,8.84,0,0,0,2.56-.71A9,9,0,0,1,20.63,8.7Z"/></svg>