<svg width="140" height="140" viewBox="0 0 140 140" fill="none" xmlns="http://www.w3.org/2000/svg">
<path fill-rule="evenodd" clip-rule="evenodd" d="M103.731 99.5756V86.6981H98.4169V99.5756H103.731ZM75.596 94.2286V86.893H70.4449V92.5005C70.4449 94.1303 70.3798 94.5873 70.2821 95.0112C69.9234 96.1851 68.6843 96.7056 67.4132 96.7056C65.6532 96.7056 64.838 96.0212 64.5118 94.9455C64.4141 94.5879 64.3815 94.1965 64.349 93.8052C64.3164 93.3814 64.349 92.9244 64.349 92.4365V86.8935H59.1328V94.2617C59.1328 95.9252 59.6874 97.1637 60.5998 98.0109C62.1645 99.5436 64.8054 100 67.2504 100C70.217 100 72.4992 99.5761 74.129 97.9789C74.9773 97.1631 75.596 96.0874 75.596 94.2286V94.2286ZM50.2976 93.3157C50.0394 93.2708 49.7776 93.2492 49.5155 93.2511H43.6475C43.3539 93.2511 43.0277 93.2837 42.8649 93.3157C42.9625 93.2174 43.1585 93.0226 43.3539 92.7616L45.9943 88.3925C46.353 87.8064 46.5158 87.4151 46.5809 87.2523C46.6461 87.4151 46.8089 87.8064 47.1676 88.4262L49.8737 92.8278C50.0045 93.0226 50.1999 93.2174 50.2976 93.3157V93.3157ZM60.1433 99.5756L48.4067 81.9715H41.8217L43.5492 84.0252C43.5818 84.0577 43.6475 84.0898 43.7121 84.1234C43.6469 84.156 43.5818 84.188 43.5492 84.2206L33.3127 99.5756H39.2459L40.8437 96.9346C40.9088 96.8044 40.9414 96.6736 40.9414 96.609C41.0065 96.609 41.1699 96.6736 41.3327 96.6736H51.928C52.0908 96.6736 52.221 96.641 52.2862 96.609C52.2802 96.7007 52.3029 96.7919 52.3513 96.8701L54.0142 99.5756H60.1433V99.5756ZM96.983 92.958C96.983 91.523 96.3958 89.8601 94.5706 87.5453L90.169 81.9709H84.0399L87.528 85.8829C88.1153 86.5353 88.8648 87.1215 88.8648 87.1215C88.0176 86.6319 86.9419 86.4371 86.0941 86.4371C84.073 86.4371 82.0182 86.861 80.1935 87.8721C78.237 88.9467 76.9328 90.7404 76.9328 93.1209C76.9328 94.9461 77.748 96.3485 78.7911 97.4242C81.139 99.771 85.4087 99.9995 86.9739 99.9995C89.2881 99.9995 92.9071 99.4779 94.9619 97.6196C96.1684 96.5108 96.983 94.9792 96.983 92.958V92.958ZM91.897 93.1209C91.897 94.4576 91.0162 95.4676 89.9079 96.0218C88.995 96.5113 87.9188 96.6416 86.9739 96.6416C86.029 96.6416 84.9202 96.4456 84.0073 95.9892C82.8991 95.4351 82.0508 94.3594 82.0508 93.1854C82.0508 91.7841 83.1265 90.6747 84.3986 90.1206C85.1813 89.763 86.1267 89.6322 86.8757 89.6322C87.5937 89.6322 88.6368 89.7293 89.452 90.056C90.9196 90.6747 91.897 91.8487 91.897 93.1209ZM102.043 40C98.2259 39.9939 94.5194 41.2816 91.5284 43.6532C88.5374 41.2815 84.8309 39.9937 81.0137 40C77.1968 39.9941 73.4905 41.2819 70.4996 43.6532C67.5089 41.2814 63.8025 39.9936 59.9855 40C56.1686 39.9941 52.4623 41.2819 49.4714 43.6532C46.4805 41.2818 42.7742 39.994 38.9572 40C29.5906 40 22 47.5901 22 56.9573C22 66.3234 29.59 73.9145 38.9572 73.9145C42.7742 73.9204 46.4804 72.6326 49.4714 70.2614C52.4623 72.6327 56.1685 73.9205 59.9855 73.9145C63.8025 73.9209 67.5089 72.6331 70.4996 70.2614C73.4905 72.6327 77.1968 73.9204 81.0137 73.9145C84.8308 73.9208 88.5374 72.633 91.5284 70.2614C94.5193 72.633 98.2259 73.9208 102.043 73.9145C111.41 73.9145 119 66.3239 119 56.9573C119 47.5906 111.41 40 102.043 40ZM46.6969 67.4913C44.5361 69.0675 41.8366 70.0295 38.9572 70.0295C31.7315 70.0295 25.8844 64.183 25.8844 56.9573C25.8844 49.7315 31.7315 43.8845 38.9572 43.8845C41.8366 43.8845 44.5344 44.847 46.6969 46.4238C44.3143 49.417 43.0208 53.1316 43.0288 56.9573C43.0306 60.7814 44.323 64.4931 46.6969 67.4913V67.4913ZM49.4719 64.7245C47.8055 62.4782 46.9083 59.7542 46.9138 56.9573C46.9067 54.1601 47.8041 51.4356 49.4719 49.1901C51.1394 51.4358 52.0367 54.1602 52.0301 56.9573C52.0353 59.7542 51.1382 62.4781 49.4719 64.7245V64.7245ZM67.7256 67.4913C65.4807 69.144 62.7644 70.0324 59.9766 70.0257C57.1947 70.0313 54.4845 69.1429 52.2459 67.4913C54.6199 64.4934 55.9124 60.7819 55.9139 56.9578C55.9219 53.1322 54.6284 49.4176 52.2459 46.4244C54.4843 44.7723 57.1946 43.8836 59.9766 43.8894C62.877 43.8894 65.5566 44.8277 67.7256 46.4244C65.3431 49.4176 64.0496 53.1322 64.0576 56.9578C64.0592 60.7819 65.3516 64.4934 67.7256 67.4913V67.4913ZM70.4996 64.7245C68.8332 62.4782 67.936 59.7542 67.9414 56.9573C67.9347 54.1602 68.832 51.4357 70.4996 49.1901C72.1675 51.4356 73.065 54.1601 73.0583 56.9573C73.0636 59.7543 72.1663 62.4783 70.4996 64.7245V64.7245ZM88.7539 67.4913C86.5848 69.0885 83.9052 70.0257 81.0054 70.0257C78.1056 70.0257 75.4432 69.0869 73.2741 67.4913C75.6484 64.4935 76.9409 60.7819 76.9422 56.9578C76.9501 53.1322 75.6566 49.4176 73.2741 46.4244C75.4432 44.8282 78.1056 43.8894 81.0054 43.8894C83.9052 43.8894 86.5848 44.8277 88.7539 46.4244C86.3716 49.4177 85.0781 53.1322 85.0858 56.9578C85.0877 60.7818 86.3801 64.4932 88.7539 67.4913V67.4913ZM91.5289 64.7245C89.8625 62.4782 88.9653 59.7542 88.9708 56.9573C88.9635 54.1601 89.8608 51.4355 91.5289 49.1901C93.1965 51.4358 94.0937 54.1602 94.0871 56.9573C94.0921 59.7541 93.195 62.478 91.5289 64.7245ZM102.043 70.0295C99.1625 70.0295 96.4636 69.0675 94.3034 67.4913C96.6773 64.4933 97.9697 60.7818 97.9715 56.9578C97.9792 53.1322 96.6857 49.4177 94.3034 46.4244C96.4659 44.8481 99.1631 43.885 102.043 43.885C109.268 43.885 115.116 49.7321 115.116 56.9578C115.116 64.1825 109.268 70.0295 102.043 70.0295Z" fill="#1D1D1F"/>
</svg>
