<?xml version="1.0" encoding="utf-8"?>
<!-- Generator: Adobe Illustrator 24.2.1, SVG Export Plug-In . SVG Version: 6.00 Build 0)  -->
<svg version="1.1" id="Ebene_1" xmlns="http://www.w3.org/2000/svg" xmlns:xlink="http://www.w3.org/1999/xlink" x="0px" y="0px"
	 width="24px" height="24px" viewBox="0 0 24 24" style="enable-background:new 0 0 24 24;" xml:space="preserve">
<style type="text/css">
	.st0{fill:#1D1D1F;}
</style>
<path class="st0" d="M18.5,8.1c5.8,0,5.1,6.1,5.1,6.3v0h-7.5c0,2.7,2.5,2.5,2.5,2.5c2.3,0,2.3-1.5,2.3-1.6h2.6c0,4.1-5,3.8-5,3.8
	c-5.9,0-5.6-5.5-5.6-5.5v0C13,13.3,13.2,8.1,18.5,8.1z M0.2,4.4h7.6c2.3,0,4.1,1.3,4.1,3.9s-2.2,2.8-2.2,2.8c2.9,0,2.7,3.6,2.7,3.6
	c0,4.1-3.9,4.3-4.5,4.3H0.2L0.2,4.4l7.5,0L0.2,4.4L0.2,4.4z M7.8,12.5H3.6v3.9h4c0.6,0,1.7-0.2,1.7-1.9C9.3,12.6,8,12.5,7.8,12.5
	L7.8,12.5L7.8,12.5z M18.6,10.2c-2.2,0-2.5,2.1-2.5,2.2h4.8v0C20.8,12.2,20.7,10.2,18.6,10.2L18.6,10.2z M7.8,7H3.6v3.2h4
	c0.7,0,1.3-0.2,1.3-1.7C8.8,7.1,7.9,7,7.8,7L7.8,7L7.8,7z M21.4,5.3v1.8h-6V5.3H21.4z"/>
</svg>
