<?xml version="1.0" encoding="utf-8"?>
<!-- Generator: Adobe Illustrator 24.2.1, SVG Export Plug-In . SVG Version: 6.00 Build 0)  -->
<svg version="1.1" id="Ebene_1" xmlns="http://www.w3.org/2000/svg" xmlns:xlink="http://www.w3.org/1999/xlink" x="0px" y="0px"
	 width="24px" height="24px" viewBox="0 0 24 24" style="enable-background:new 0 0 24 24;" xml:space="preserve">
<style type="text/css">
	.st0{fill:#1D1D1F;}
</style>
<path class="st0" d="M22.5,0C23.3,0,24,0.7,24,1.5v21c0,0.8-0.7,1.5-1.5,1.5h-6v-9h3l0.8-3.8h-3.8V9.8c0-1.5,0.8-2.2,2.2-2.2h1.5
	V3.8h-3c-2.8,0-4.5,2.2-4.5,5.2v2.2h-3V15h3v9H1.5C0.7,24,0,23.3,0,22.5v-21C0,0.7,0.7,0,1.5,0H22.5z"/>
</svg>
