<?xml version="1.0" encoding="utf-8"?>
<!-- Generator: Adobe Illustrator 24.2.1, SVG Export Plug-In . SVG Version: 6.00 Build 0)  -->
<svg version="1.1" id="Ebene_1" xmlns="http://www.w3.org/2000/svg" xmlns:xlink="http://www.w3.org/1999/xlink" x="0px" y="0px"
	 width="24px" height="24px" viewBox="0 0 24 24" style="enable-background:new 0 0 24 24;" xml:space="preserve">
<style type="text/css">
	.st0{fill:#1D1D1F;}
</style>
<path class="st0" d="M17,0c1.9-0.1,3.7,0.7,5.1,2c1.3,1.3,2,3.2,1.9,5v10c0,2.1-0.7,3.9-2,5.1c-1.4,1.3-3.2,2-5.1,1.9H7.1
	c-1.9,0.1-3.7-0.6-5-1.9c-1.4-1.4-2.1-3.2-2-5.2V7c0-4.2,2.8-7,7-7H17z M17,2.2h-10c-1.5,0-2.7,0.4-3.5,1.2C2.6,4.4,2.2,5.7,2.2,7
	v9.9c0,1.5,0.4,2.7,1.3,3.6c1,0.9,2.2,1.3,3.5,1.2h9.9c1.3,0.1,2.6-0.4,3.5-1.2c0.9-0.9,1.4-2.2,1.4-3.5V7c0-1.3-0.4-2.5-1.3-3.5
	C19.6,2.6,18.3,2.2,17,2.2z M12,5.8c3.4,0,6.2,2.8,6.2,6.2c0,3.4-2.8,6.2-6.2,6.2c-3.4,0-6.2-2.8-6.2-6.2C5.8,8.5,8.6,5.8,12,5.8z
	 M12,8c-2.2,0-4,1.8-4,4c0,2.2,1.8,4,4,4c2.2,0,4-1.8,4-4C16,9.8,14.2,8,12,8z M18.4,4.2c0.8,0,1.4,0.6,1.4,1.4
	c0,0.8-0.6,1.4-1.4,1.4c0,0,0,0,0,0C17.7,7,17,6.4,17,5.6S17.7,4.2,18.4,4.2z"/>
</svg>
