<?xml version="1.0" encoding="utf-8"?>
<!-- Generator: Adobe Illustrator 24.2.1, SVG Export Plug-In . SVG Version: 6.00 Build 0)  -->
<svg version="1.1" id="Ebene_1" xmlns="http://www.w3.org/2000/svg" xmlns:xlink="http://www.w3.org/1999/xlink" x="0px" y="0px"
	 width="24px" height="24px" viewBox="0 0 24 24" style="enable-background:new 0 0 24 24;" xml:space="preserve">
<style type="text/css">
	.st0{fill:#1D1D1F;}
</style>
<path class="st0" d="M22.2,0H1.8C0.8,0,0,0.8,0,1.7v20.6c0,1,0.8,1.7,1.8,1.7h20.5c1,0,1.8-0.8,1.8-1.7V1.7C24,0.8,23.2,0,22.2,0z
	 M7.3,20.1H3.7V9.2h3.6V20.1z M5.5,7.8L5.5,7.8c-1.3,0-2-0.8-2-1.9C3.4,4.8,4.2,4,5.5,4c1.2,0,2,0.8,2,1.9C7.5,6.9,6.7,7.8,5.5,7.8
	L5.5,7.8z M20.3,20.1h-3.6v-5.8c0-1.4-0.5-2.4-1.8-2.4c-1,0-1.6,0.7-1.9,1.3c-0.1,0.2-0.1,0.6-0.1,0.9v6.1H9.3c0,0,0.1-9.8,0-10.8
	h3.6v1.5c0.7-1.2,1.9-1.9,3.3-1.8c2.4,0,4.2,1.6,4.2,4.9L20.3,20.1L20.3,20.1z"/>
</svg>
