<?xml version="1.0" encoding="utf-8"?>
<!-- Generator: Adobe Illustrator 24.2.1, SVG Export Plug-In . SVG Version: 6.00 Build 0)  -->
<svg version="1.1" id="Ebene_1" xmlns="http://www.w3.org/2000/svg" xmlns:xlink="http://www.w3.org/1999/xlink" x="0px" y="0px"
	 width="140px" height="72px" viewBox="0 0 140 72" style="enable-background:new 0 0 140 72;" xml:space="preserve">
<style type="text/css">
	.st0{opacity:0.7;}
	.st1{fill:#6B6B83;}
</style>
<g class="st0">
	<path class="st1" d="M25.7,22.7v26.6h26.6V22.7H25.7z M47.6,44.2c-2.3,1-4.6,1.5-6.9,1.5c-3.1,0-5.6-0.9-7.5-2.7
		c-1.9-1.8-2.8-4.1-2.8-6.7c0-2.8,1-5.2,2.9-7c1.9-1.9,4.4-2.8,7.3-2.8c1.1,0,2.1,0.1,3,0.3c1,0.2,2.2,0.7,3.6,1.3v2.8
		c-2.3-1.3-4.5-2-6.7-2c-2.1,0-3.8,0.7-5.2,2.1c-1.4,1.4-2.1,3.1-2.1,5.2c0,2.1,0.7,3.9,2.1,5.3c1.4,1.4,3.2,2,5.5,2
		c1.1,0,2.4-0.2,3.9-0.7l0.3-0.1v-3.9h-3.6v-2.6h6.2V44.2z"/>
	<path class="st1" d="M56.7,22.7v26.6h26.6V22.7H56.7z M71.3,45.5h-2.7V26.6h2.7V45.5z"/>
	<path class="st1" d="M87.7,22.7v26.6h26.6V22.7H87.7z M106.6,45.5H95.4V26.6h2.7V43h8.5V45.5z"/>
</g>
</svg>
