<?xml version="1.0" encoding="utf-8"?>
<!-- Generator: Adobe Illustrator 24.2.1, SVG Export Plug-In . SVG Version: 6.00 Build 0)  -->
<svg version="1.1" id="Ebene_1" xmlns="http://www.w3.org/2000/svg" xmlns:xlink="http://www.w3.org/1999/xlink" x="0px" y="0px"
	 width="140px" height="140px" viewBox="0 0 140 140" style="enable-background:new 0 0 140 140;" xml:space="preserve">
<style type="text/css">
	.st0{fill:#FFFFFF;}
</style>
<g>
	<rect x="25.7" y="56.7" width="26.6" height="26.6"/>
	<rect x="56.7" y="56.7" width="26.6" height="26.6"/>
	<rect x="87.7" y="56.7" width="26.6" height="26.6"/>
	<g>
		<path class="st0" d="M41.3,70.2h6.3v8c-2.3,1-4.6,1.5-6.9,1.5c-3.1,0-5.6-0.9-7.5-2.7c-1.9-1.8-2.8-4.1-2.8-6.7c0-2.8,1-5.2,2.9-7
			c1.9-1.9,4.4-2.8,7.3-2.8c1.1,0,2.1,0.1,3,0.3c1,0.2,2.2,0.7,3.6,1.3v2.8c-2.3-1.3-4.5-2-6.7-2c-2.1,0-3.8,0.7-5.2,2.1
			c-1.4,1.4-2.1,3.1-2.1,5.2c0,2.1,0.7,3.9,2.1,5.3c1.4,1.4,3.2,2,5.5,2c1.1,0,2.4-0.2,3.9-0.7l0.3-0.1v-3.9h-3.6V70.2z"/>
	</g>
	<g>
		<path class="st0" d="M68.6,60.6h2.7v18.9h-2.7V60.6z"/>
	</g>
	<g>
		<path class="st0" d="M95.4,60.6h2.7V77h8.5v2.5H95.4V60.6z"/>
	</g>
</g>
</svg>
