<?xml version="1.0" encoding="utf-8"?>
<!-- Generator: Adobe Illustrator 24.2.1, SVG Export Plug-In . SVG Version: 6.00 Build 0)  -->
<svg version="1.1" id="Ebene_1" xmlns="http://www.w3.org/2000/svg" xmlns:xlink="http://www.w3.org/1999/xlink" x="0px" y="0px"
	 width="140px" height="72px" viewBox="0 0 140 72" style="enable-background:new 0 0 140 72;" xml:space="preserve">
<style type="text/css">
	.st0{opacity:0.7;}
	.st1{fill:#6B6B83;}
</style>
<g class="st0">
	<path class="st1" d="M44.4,39.5c-0.6,0.4-0.9,1.1-0.9,1.9c0,0.7,0.3,1.3,0.8,1.7c0.6,0.4,1.3,0.7,2.3,0.7c1.5,0,2.6-0.4,3.4-1.2
		s1.2-1.8,1.3-3.1c0-0.1,0-0.6,0-0.6h-4.4C45.8,38.9,45,39.1,44.4,39.5z"/>
	<path class="st1" d="M78.9,39.5c-0.6,0.4-0.9,1.1-0.9,1.9c0,0.7,0.3,1.3,0.8,1.7c0.6,0.4,1.3,0.7,2.3,0.7c1.5,0,2.6-0.4,3.4-1.2
		s1.2-1.8,1.3-3.1c0-0.1,0-0.6,0-0.6h-4.4C80.3,38.9,79.5,39.1,78.9,39.5z"/>
	<path class="st1" d="M110.9,34.6c0-4.4-3.5-7.9-7.9-7.9c-0.4,0-0.9,0-1.3,0.1c0.1-0.3,0.1-0.7,0.1-1c0-3.6-3-6.6-6.6-6.6
		c-3,0-5.5,2-6.3,4.7c-1.1-0.3-2.2-0.4-3.4-0.4c-1.2,0-2.3,0.2-3.3,0.4c-0.6-1.3-1.9-2.1-3.5-2.1c-0.9,0-1.7,0.3-2.4,0.8
		c-0.5-2.7-2.9-4.7-5.7-4.7c-2.9,0-5.3,2.1-5.7,4.9c-1.7-1.4-4-2.2-6.4-2.2c-2.9,0-5.5,1.2-7.4,3.2c-1.3-0.3-2.6-0.6-4-0.6
		c-2.6,0-5,0.6-7.2,1.8c-1-0.5-2.1-0.8-3.3-0.8c-4.1,0-7.5,3.4-7.5,7.5c0,2.3,1,4.3,2.6,5.6c0,0.4-0.1,0.9-0.1,1.4
		c0,8.6,6.9,15.5,15.5,15.5c2.6,0,5-0.6,7.1-1.7c1.3,0.7,2.9,1.1,4.5,1.1c3.4,0,6.3-1.8,8-4.5c1.4,1.5,3.3,2.4,5.4,2.4
		c1.4,0,2.8-0.4,3.9-1.1c2.4,2.1,5.6,3.4,9,3.4c3.2,0,6.2-1.1,8.5-3C95,52.2,96.9,53,99,53c4.4,0,7.9-3.5,7.9-7.9
		c0-1.2-0.3-2.3-0.7-3.3C109,40.6,110.9,37.8,110.9,34.6z M56.6,46.3h-1.9c-1.1,0-1.9-0.2-2.4-0.7s-0.7-1.1-0.7-2
		c-1.3,1.9-3.1,2.9-5.5,2.9c-1.9,0-3.4-0.4-4.5-1.3c-1.1-0.9-1.7-2.1-1.7-3.6c0-1.7,0.6-3,1.8-4c1.2-0.9,3-1.4,5.3-1.4h4.2v-1
		c0-0.9-0.3-1.7-1-2.2s-1.6-0.8-2.7-0.8c-1,0-1.9,0.2-2.5,0.7c-0.7,0.4-1.1,1-1.2,1.8h-3.5c0.2-1.7,0.9-3,2.2-3.9s3-1.4,5.1-1.4
		c2.2,0,4,0.5,5.2,1.6c1.2,1,1.8,2.6,1.8,4.5v6.6c0,0.8,0.4,1.2,1.1,1.2h0.9V46.3z M67.1,33h-1.6c-1.5,0-2.5,0.5-3.2,1.4
		c-0.7,0.9-1,2.2-1,3.6v8.4h-3.5V29.7h3.1l0.4,2.5c0.5-0.8,1.1-1.4,1.9-1.8c0.8-0.4,1.8-0.7,3.1-0.7h0.8V33z M72.2,46.4h-3.5V29.7
		h3.5V46.4z M72,26.5c-0.4,0.4-0.9,0.6-1.5,0.6S69.4,27,69,26.5c-0.4-0.4-0.6-0.9-0.6-1.5s0.2-1.1,0.6-1.5s0.9-0.6,1.5-0.6
		c0.6-0.1,1.1,0.1,1.5,0.6c0.4,0.4,0.6,0.9,0.6,1.5S72.4,26.1,72,26.5z M91.1,46.3h-1.9c-1.1,0-1.9-0.2-2.4-0.7s-0.7-1.1-0.7-2
		c-1.3,1.9-3.1,2.9-5.5,2.9c-1.9,0-3.4-0.4-4.5-1.3c-1.1-0.9-1.7-2.1-1.7-3.6c0-1.7,0.6-3,1.8-4c1.2-0.9,3-1.4,5.3-1.4h4.2v-1
		c0-0.9-0.3-1.7-1-2.2s-1.6-0.8-2.7-0.8c-1,0-1.9,0.2-2.5,0.7c-0.7,0.4-1.1,1-1.2,1.8h-3.5c0.2-1.7,0.9-3,2.2-3.9s3-1.4,5.1-1.4
		c2.2,0,4,0.5,5.2,1.6c1.2,1,1.8,2.6,1.8,4.5v6.6c0,0.8,0.4,1.2,1.1,1.2h0.9v-0.1c0,0,0,0.1,0,0.1h0V46.3z M96.5,46.4H93V23.5h3.5
		V46.4z"/>
</g>
</svg>
