<?xml version="1.0" encoding="utf-8"?>
<!-- Generator: Adobe Illustrator 24.2.1, SVG Export Plug-In . SVG Version: 6.00 Build 0)  -->
<svg version="1.1" id="Ebene_1" xmlns="http://www.w3.org/2000/svg" xmlns:xlink="http://www.w3.org/1999/xlink" x="0px" y="0px"
	 width="140px" height="140px" viewBox="0 0 140 140" style="enable-background:new 0 0 140 140;" xml:space="preserve">
<g>
	<path d="M30.1,76.1v2.3h-1.4c-0.8,0-1.4-0.2-1.7-0.5c-0.3-0.3-0.5-0.8-0.5-1.5c-0.9,1.4-2.3,2.1-4.1,2.1c-1.4,0-2.4-0.3-3.3-1
		c-0.8-0.7-1.2-1.5-1.2-2.6c0-1.2,0.4-2.2,1.3-2.9c0.9-0.7,2.2-1,3.9-1h3.1v-0.7c0-0.7-0.2-1.2-0.7-1.6c-0.5-0.4-1.1-0.6-2-0.6
		c-0.7,0-1.4,0.2-1.9,0.5c-0.5,0.3-0.8,0.7-0.9,1.3h-2.5c0.2-1.2,0.7-2.2,1.6-2.8c1-0.7,2.2-1,3.7-1c1.6,0,2.9,0.4,3.8,1.1
		s1.3,1.9,1.3,3.3v4.6c0,0.6,0.2,0.9,0.8,0.9H30.1z M26.2,72.8H23c-0.8,0-1.4,0.2-1.9,0.5c-0.4,0.3-0.7,0.7-0.7,1.4
		c0,0.5,0.2,1,0.6,1.3c0.4,0.3,1,0.5,1.6,0.5c1.1,0,1.9-0.3,2.5-0.9c0.6-0.6,0.9-1.3,0.9-2.3L26.2,72.8L26.2,72.8z"/>
	<path d="M29.1,66.1h2.8l2.8,9.4l2.8-9.4h2.4l2.7,9.4l2.9-9.4H48l-4.1,12.3h-2.8L38.5,70l-2.7,8.3h-2.8L29.1,66.1z"/>
	<g>
		<polygon points="63,66.1 60.2,75.4 57.5,66.1 55.1,66.1 52.3,75.4 49.5,66.1 49.5,66.1 48.1,70.2 50.7,78.3 53.6,78.3 56.3,70 
			58.9,78.3 61.6,78.3 65.7,66.1 		"/>
	</g>
	<g>
		<polygon points="80.9,66.1 78.1,75.4 75.4,66.1 72.9,66.1 70.2,75.4 67.4,66.1 67.4,66.1 66,70.2 68.6,78.3 71.5,78.3 74.1,70 
			76.7,78.3 79.4,78.3 83.5,66.1 		"/>
	</g>
	<path d="M95.3,76.1v2.3h-1.4c-0.8,0-1.4-0.2-1.7-0.5c-0.3-0.3-0.5-0.8-0.5-1.5c-0.9,1.4-2.3,2.1-4.1,2.1c-1.4,0-2.4-0.3-3.3-1
		c-0.8-0.7-1.2-1.5-1.2-2.7c0-1.2,0.4-2.2,1.3-2.9c0.9-0.7,2.2-1,3.9-1h3.1v-0.7c0-0.7-0.2-1.2-0.7-1.6s-1.1-0.6-2-0.6
		c-0.7,0-1.4,0.2-1.9,0.5c-0.5,0.3-0.8,0.7-0.9,1.3h-2.5c0.2-1.2,0.7-2.2,1.6-2.8s2.2-1,3.7-1c1.6,0,2.9,0.4,3.8,1.1
		c0.9,0.7,1.3,1.9,1.3,3.3v4.7c0,0.6,0.2,0.9,0.8,0.9H95.3z M91.4,72.8h-3.2c-0.8,0-1.4,0.2-1.9,0.5c-0.4,0.3-0.7,0.7-0.7,1.4
		c0,0.5,0.2,1,0.6,1.3c0.4,0.3,1,0.5,1.6,0.5c1.1,0,1.9-0.3,2.5-0.9c0.6-0.6,0.9-1.3,0.9-2.3L91.4,72.8L91.4,72.8z"/>
	<path d="M103.5,66.1v2.4h-1.1c-1.1,0-1.9,0.3-2.4,1.1c-0.5,0.7-0.7,1.5-0.7,2.6v6.2h-2.6V66.1H99l0.3,1.9c0.3-0.6,0.8-1.1,1.4-1.4
		c0.6-0.3,1.3-0.5,2.3-0.5H103.5z"/>
	<path d="M116.4,61.5v16.8h-2.3l-0.3-1.9c-1,1.3-2.3,2-4,2c-1.1,0-2.1-0.2-3-0.7c-0.9-0.5-1.5-1.2-2-2.2c-0.5-1-0.7-2-0.7-3.3
		c0-1.2,0.2-2.4,0.7-3.3c0.5-1,1.2-1.7,2-2.2c0.9-0.5,1.9-0.8,2.9-0.8c0.9,0,1.7,0.2,2.4,0.5s1.2,0.8,1.6,1.4v-6.2H116.4z
		 M112.9,75.1c0.7-0.7,1-1.7,1-2.9s-0.3-2.2-1-3c-0.7-0.7-1.5-1.1-2.6-1.1s-2,0.4-2.6,1.1c-0.7,0.7-1,1.7-1,2.9c0,1.2,0.3,2.2,1,2.9
		c0.7,0.7,1.5,1.1,2.6,1.1S112.2,75.9,112.9,75.1z"/>
	<path d="M119.2,75.7c0.3-0.3,0.7-0.5,1.2-0.5s0.9,0.2,1.2,0.5c0.3,0.3,0.5,0.7,0.5,1.1c0,0.5-0.2,0.9-0.5,1.1
		c-0.3,0.3-0.7,0.5-1.2,0.5s-0.9-0.2-1.2-0.5c-0.3-0.3-0.5-0.7-0.5-1.1C118.7,76.3,118.9,75.9,119.2,75.7z"/>
</g>
</svg>
