<?xml version="1.0" encoding="utf-8"?>
<!-- Generator: Adobe Illustrator 24.2.1, SVG Export Plug-In . SVG Version: 6.00 Build 0)  -->
<svg version="1.1" id="Ebene_1" xmlns="http://www.w3.org/2000/svg" xmlns:xlink="http://www.w3.org/1999/xlink" x="0px" y="0px"
	 width="140px" height="140px" viewBox="0 0 140 140" style="enable-background:new 0 0 140 140;" xml:space="preserve">
<g>
	<path d="M28.2,52.5v6.2h6.5v-6.2h3.5v16.1h-3.5v-7h-6.5v7h-3.5V52.5H28.2z"/>
	<path d="M43.1,65.8c0.5,0.5,1.2,0.7,2.1,0.7c0.6,0,1.2-0.2,1.7-0.5c0.5-0.3,0.8-0.7,0.9-1h2.8c-0.5,1.4-1.1,2.4-2.1,3
		c-0.9,0.6-2.1,0.9-3.4,0.9c-0.9,0-1.7-0.1-2.5-0.4c-0.7-0.3-1.4-0.7-1.9-1.3c-0.5-0.5-0.9-1.2-1.2-1.9c-0.3-0.8-0.4-1.6-0.4-2.5
		c0-0.9,0.1-1.7,0.4-2.4c0.3-0.8,0.7-1.4,1.2-2s1.2-1,1.9-1.3c0.7-0.3,1.5-0.5,2.4-0.5c1,0,1.9,0.2,2.6,0.6c0.7,0.4,1.3,0.9,1.8,1.5
		c0.5,0.6,0.8,1.4,1,2.2c0.2,0.8,0.3,1.7,0.2,2.6h-8.4C42.4,64.6,42.6,65.3,43.1,65.8z M46.7,59.6c-0.4-0.4-1-0.6-1.8-0.6
		c-0.5,0-0.9,0.1-1.3,0.3c-0.3,0.2-0.6,0.4-0.8,0.6c-0.2,0.3-0.3,0.5-0.4,0.8c-0.1,0.3-0.1,0.5-0.1,0.8h5.2
		C47.4,60.7,47.1,60.1,46.7,59.6z"/>
	<path d="M55,52.5v16.1h-3.2V52.5H55z"/>
	<path d="M59.5,68.6l-4-11.7h3.4l2.5,8h0l2.5-8h3.2l-4,11.7H59.5z"/>
	<path d="M70.9,65.8c0.5,0.5,1.2,0.7,2.1,0.7c0.6,0,1.2-0.2,1.7-0.5c0.5-0.3,0.8-0.7,0.9-1h2.8c-0.5,1.4-1.1,2.4-2.1,3
		c-0.9,0.6-2.1,0.9-3.4,0.9c-0.9,0-1.7-0.1-2.5-0.4c-0.7-0.3-1.4-0.7-1.9-1.3c-0.5-0.5-0.9-1.2-1.2-1.9c-0.3-0.8-0.4-1.6-0.4-2.5
		c0-0.9,0.1-1.7,0.4-2.4c0.3-0.8,0.7-1.4,1.2-2s1.2-1,1.9-1.3c0.7-0.3,1.5-0.5,2.4-0.5c1,0,1.9,0.2,2.6,0.6c0.7,0.4,1.3,0.9,1.8,1.5
		c0.5,0.6,0.8,1.4,1,2.2c0.2,0.8,0.3,1.7,0.2,2.6h-8.4C70.2,64.6,70.4,65.3,70.9,65.8z M74.6,59.6c-0.4-0.4-1-0.6-1.8-0.6
		c-0.5,0-0.9,0.1-1.3,0.3c-0.3,0.2-0.6,0.4-0.8,0.6c-0.2,0.3-0.3,0.5-0.4,0.8c-0.1,0.3-0.1,0.5-0.1,0.8h5.2
		C75.2,60.7,74.9,60.1,74.6,59.6z"/>
	<path d="M86,56.9v2.1h-2.3v5.8c0,0.5,0.1,0.9,0.3,1.1c0.2,0.2,0.5,0.3,1.1,0.3c0.2,0,0.4,0,0.5,0c0.2,0,0.3,0,0.5-0.1v2.5
		c-0.3,0-0.6,0.1-0.9,0.1c-0.3,0-0.7,0-1,0c-0.5,0-1,0-1.4-0.1c-0.4-0.1-0.8-0.2-1.2-0.4c-0.3-0.2-0.6-0.5-0.8-0.8
		c-0.2-0.4-0.3-0.8-0.3-1.4v-6.9h-1.9v-2.1h1.9v-3.5h3.2v3.5H86z"/>
	<path d="M87.1,55.1v-2.6h3.2v2.6H87.1z M90.3,56.9v11.7h-3.2V56.9H90.3z"/>
	<path d="M97.6,59c-0.5,0-0.9,0.1-1.3,0.3c-0.3,0.2-0.6,0.5-0.8,0.9C95.2,60.6,95,61,95,61.5c-0.1,0.4-0.1,0.9-0.1,1.3
		c0,0.4,0,0.9,0.1,1.3c0.1,0.4,0.2,0.8,0.4,1.2s0.5,0.6,0.8,0.9s0.8,0.3,1.3,0.3c0.8,0,1.4-0.2,1.8-0.6c0.4-0.4,0.7-1,0.8-1.7h3.1
		c-0.2,1.6-0.8,2.7-1.8,3.5c-1,0.8-2.3,1.2-3.8,1.2c-0.9,0-1.7-0.1-2.4-0.4c-0.7-0.3-1.4-0.7-1.9-1.2c-0.5-0.5-0.9-1.2-1.2-1.9
		c-0.3-0.7-0.4-1.5-0.4-2.4c0-0.9,0.1-1.7,0.4-2.5c0.3-0.8,0.7-1.4,1.2-2c0.5-0.6,1.1-1,1.9-1.3c0.7-0.3,1.6-0.5,2.5-0.5
		c0.7,0,1.4,0.1,2,0.3c0.6,0.2,1.2,0.5,1.7,0.8c0.5,0.4,0.9,0.8,1.2,1.4c0.3,0.5,0.5,1.2,0.5,2h-3.1C99.7,59.7,98.9,59,97.6,59z"/>
	<path d="M104.3,60.5c0-0.8,0.2-1.4,0.6-1.9c0.3-0.5,0.8-0.9,1.3-1.2c0.5-0.3,1.1-0.5,1.7-0.6c0.6-0.1,1.3-0.2,1.9-0.2
		c0.6,0,1.2,0,1.8,0.1c0.6,0.1,1.2,0.2,1.6,0.5c0.5,0.2,0.9,0.6,1.2,1c0.3,0.4,0.5,1,0.5,1.7V66c0,0.5,0,1,0.1,1.5
		c0.1,0.5,0.2,0.8,0.3,1.1h-3.3c-0.1-0.2-0.1-0.4-0.1-0.6c0-0.2-0.1-0.4-0.1-0.6c-0.5,0.5-1.1,0.9-1.8,1.1c-0.7,0.2-1.4,0.3-2.1,0.3
		c-0.6,0-1.1-0.1-1.6-0.2c-0.5-0.1-0.9-0.3-1.3-0.6c-0.4-0.3-0.6-0.6-0.8-1.1c-0.2-0.4-0.3-1-0.3-1.6c0-0.7,0.1-1.2,0.3-1.6
		c0.2-0.4,0.5-0.8,0.9-1c0.4-0.3,0.8-0.4,1.3-0.6c0.5-0.1,1-0.2,1.4-0.3c0.5-0.1,1-0.1,1.4-0.2c0.5,0,0.9-0.1,1.2-0.2
		c0.4-0.1,0.6-0.2,0.9-0.4c0.2-0.2,0.3-0.4,0.3-0.8c0-0.3-0.1-0.6-0.2-0.8c-0.1-0.2-0.3-0.4-0.5-0.5c-0.2-0.1-0.4-0.2-0.7-0.2
		c-0.2,0-0.5-0.1-0.8-0.1c-0.6,0-1.1,0.1-1.5,0.4c-0.4,0.3-0.6,0.7-0.6,1.4H104.3z M111.8,62.9c-0.1,0.1-0.3,0.2-0.5,0.3
		c-0.2,0.1-0.4,0.1-0.7,0.2c-0.2,0-0.5,0.1-0.7,0.1c-0.3,0-0.5,0.1-0.8,0.1c-0.2,0-0.5,0.1-0.7,0.2c-0.2,0.1-0.4,0.2-0.6,0.3
		c-0.2,0.1-0.3,0.3-0.4,0.5c-0.1,0.2-0.2,0.4-0.2,0.7c0,0.3,0.1,0.5,0.2,0.7c0.1,0.2,0.2,0.4,0.4,0.5c0.2,0.1,0.4,0.2,0.6,0.2
		c0.2,0,0.5,0.1,0.7,0.1c0.6,0,1.1-0.1,1.5-0.3c0.3-0.2,0.6-0.5,0.8-0.8c0.2-0.3,0.3-0.6,0.3-0.9c0-0.3,0.1-0.5,0.1-0.7V62.9z"/>
	<path d="M32.2,71.1c0.8,0,1.5,0.1,2.1,0.2c0.6,0.1,1.2,0.4,1.6,0.7c0.5,0.3,0.8,0.7,1,1.2c0.2,0.5,0.4,1.1,0.4,1.9
		c0,0.8-0.2,1.5-0.6,2c-0.4,0.5-0.9,1-1.6,1.3c1,0.3,1.7,0.8,2.2,1.5c0.5,0.7,0.7,1.6,0.7,2.6c0,0.8-0.2,1.5-0.5,2.1
		c-0.3,0.6-0.7,1.1-1.3,1.5c-0.5,0.4-1.1,0.7-1.8,0.8c-0.7,0.2-1.4,0.3-2.1,0.3h-7.8V71.1H32.2z M31.8,77.6c0.6,0,1.2-0.2,1.6-0.5
		c0.4-0.3,0.6-0.8,0.6-1.5c0-0.4-0.1-0.7-0.2-0.9c-0.1-0.2-0.3-0.4-0.5-0.6C33,74.1,32.7,74,32.4,74c-0.3-0.1-0.6-0.1-0.9-0.1h-3.3
		v3.8H31.8z M32,84.5c0.3,0,0.7,0,1-0.1c0.3-0.1,0.6-0.2,0.8-0.3c0.2-0.2,0.4-0.4,0.6-0.6c0.1-0.3,0.2-0.6,0.2-1
		c0-0.8-0.2-1.4-0.7-1.8c-0.5-0.4-1.1-0.5-1.9-0.5h-3.9v4.4H32z"/>
	<path d="M42.6,71.1v16.1h-3.2V71.1H42.6z"/>
	<path d="M44.1,79.2c0-0.8,0.2-1.4,0.6-1.9c0.3-0.5,0.8-0.9,1.3-1.2c0.5-0.3,1.1-0.5,1.7-0.6c0.6-0.1,1.3-0.2,1.9-0.2
		c0.6,0,1.2,0,1.8,0.1c0.6,0.1,1.2,0.2,1.6,0.5c0.5,0.2,0.9,0.6,1.2,1c0.3,0.4,0.5,1,0.5,1.7v6.1c0,0.5,0,1,0.1,1.5
		c0.1,0.5,0.2,0.8,0.3,1.1h-3.3c-0.1-0.2-0.1-0.4-0.1-0.6c0-0.2-0.1-0.4-0.1-0.6c-0.5,0.5-1.1,0.9-1.8,1.1c-0.7,0.2-1.4,0.3-2.1,0.3
		c-0.6,0-1.1-0.1-1.6-0.2c-0.5-0.1-0.9-0.3-1.3-0.6c-0.4-0.3-0.6-0.6-0.8-1.1c-0.2-0.4-0.3-1-0.3-1.6c0-0.7,0.1-1.2,0.3-1.6
		c0.2-0.4,0.5-0.8,0.9-1c0.4-0.3,0.8-0.4,1.3-0.6c0.5-0.1,1-0.2,1.4-0.3c0.5-0.1,1-0.1,1.4-0.2c0.5,0,0.9-0.1,1.2-0.2
		c0.4-0.1,0.6-0.2,0.9-0.4c0.2-0.2,0.3-0.4,0.3-0.8c0-0.3-0.1-0.6-0.2-0.8s-0.3-0.4-0.5-0.5c-0.2-0.1-0.4-0.2-0.7-0.2
		c-0.2,0-0.5-0.1-0.8-0.1c-0.6,0-1.1,0.1-1.5,0.4c-0.4,0.3-0.6,0.7-0.6,1.4H44.1z M51.5,81.5c-0.1,0.1-0.3,0.2-0.5,0.3
		c-0.2,0.1-0.4,0.1-0.7,0.2c-0.2,0-0.5,0.1-0.7,0.1c-0.3,0-0.5,0.1-0.8,0.1c-0.2,0-0.5,0.1-0.7,0.2c-0.2,0.1-0.4,0.2-0.6,0.3
		c-0.2,0.1-0.3,0.3-0.4,0.5c-0.1,0.2-0.2,0.4-0.2,0.7c0,0.3,0.1,0.5,0.2,0.7c0.1,0.2,0.2,0.4,0.4,0.5c0.2,0.1,0.4,0.2,0.6,0.2
		c0.2,0,0.5,0.1,0.7,0.1c0.6,0,1.1-0.1,1.5-0.3c0.3-0.2,0.6-0.5,0.8-0.8c0.2-0.3,0.3-0.6,0.3-0.9c0-0.3,0.1-0.5,0.1-0.7V81.5z"/>
	<path d="M61.8,77.7c-0.5,0-0.9,0.1-1.3,0.3c-0.3,0.2-0.6,0.5-0.8,0.9c-0.2,0.4-0.4,0.8-0.5,1.2s-0.1,0.9-0.1,1.3
		c0,0.4,0,0.9,0.1,1.3c0.1,0.4,0.2,0.8,0.4,1.2s0.5,0.6,0.8,0.9c0.3,0.2,0.8,0.3,1.3,0.3c0.8,0,1.4-0.2,1.8-0.6
		c0.4-0.4,0.7-1,0.8-1.7h3.1c-0.2,1.6-0.8,2.7-1.8,3.5c-1,0.8-2.3,1.2-3.8,1.2c-0.9,0-1.7-0.1-2.4-0.4c-0.7-0.3-1.4-0.7-1.9-1.2
		c-0.5-0.5-0.9-1.2-1.2-1.9c-0.3-0.7-0.4-1.5-0.4-2.4c0-0.9,0.1-1.7,0.4-2.5c0.3-0.8,0.7-1.4,1.2-2c0.5-0.6,1.1-1,1.9-1.3
		c0.7-0.3,1.6-0.5,2.5-0.5c0.7,0,1.4,0.1,2,0.3c0.6,0.2,1.2,0.5,1.7,0.8s0.9,0.8,1.2,1.4c0.3,0.5,0.5,1.2,0.5,2h-3.1
		C64,78.3,63.2,77.7,61.8,77.7z"/>
	<path d="M71.4,71.1v8.6l4-4.2h3.8l-4.4,4.3l4.9,7.4h-3.9L72.6,82l-1.2,1.2v4h-3.2V71.1H71.4z"/>
	<path d="M80,72.4c0.1-0.3,0.3-0.5,0.5-0.7c0.2-0.2,0.4-0.3,0.7-0.4c0.3-0.1,0.5-0.2,0.8-0.2c0.3,0,0.6,0.1,0.8,0.2
		c0.3,0.1,0.5,0.2,0.7,0.4c0.2,0.2,0.4,0.4,0.5,0.7c0.1,0.3,0.2,0.6,0.2,0.9c0,0.3-0.1,0.6-0.2,0.9c-0.1,0.3-0.3,0.5-0.5,0.7
		c-0.2,0.2-0.4,0.3-0.7,0.4c-0.3,0.1-0.5,0.2-0.8,0.2c-0.3,0-0.6-0.1-0.8-0.2c-0.3-0.1-0.5-0.2-0.7-0.4c-0.2-0.2-0.4-0.4-0.5-0.7
		c-0.1-0.3-0.2-0.6-0.2-0.9C79.8,73,79.8,72.7,80,72.4z M80.5,74c0.1,0.2,0.2,0.4,0.3,0.5c0.1,0.2,0.3,0.3,0.5,0.4
		C81.6,75,81.8,75,82,75c0.2,0,0.4,0,0.6-0.1c0.2-0.1,0.4-0.2,0.5-0.4c0.1-0.2,0.3-0.3,0.3-0.5c0.1-0.2,0.1-0.4,0.1-0.7
		c0-0.2,0-0.5-0.1-0.7c-0.1-0.2-0.2-0.4-0.3-0.5c-0.1-0.2-0.3-0.3-0.5-0.4c-0.2-0.1-0.4-0.1-0.6-0.1c-0.2,0-0.4,0-0.6,0.1
		c-0.2,0.1-0.4,0.2-0.5,0.4c-0.1,0.2-0.3,0.3-0.3,0.5c-0.1,0.2-0.1,0.4-0.1,0.7C80.4,73.6,80.4,73.8,80.5,74z M82,72.1
		c0.3,0,0.5,0.1,0.7,0.2c0.2,0.1,0.2,0.3,0.2,0.6c0,0.1,0,0.2,0,0.3c0,0.1-0.1,0.1-0.1,0.2c-0.1,0.1-0.1,0.1-0.2,0.1
		c-0.1,0-0.2,0-0.2,0.1l0.6,1.1h-0.5l-0.6-1h-0.3v1h-0.5v-2.4H82z M82,73.1c0.1,0,0.3,0,0.3-0.1c0.1,0,0.1-0.1,0.1-0.3
		c0-0.1,0-0.1,0-0.2c0,0-0.1-0.1-0.1-0.1s-0.1,0-0.2,0c-0.1,0-0.1,0-0.2,0h-0.4v0.6H82z"/>
</g>
</svg>
