<?xml version="1.0" encoding="utf-8"?>
<!-- Generator: Adobe Illustrator 24.2.1, SVG Export Plug-In . SVG Version: 6.00 Build 0)  -->
<svg version="1.1" id="Ebene_1" xmlns="http://www.w3.org/2000/svg" xmlns:xlink="http://www.w3.org/1999/xlink" x="0px" y="0px"
	 width="140px" height="72px" viewBox="0 0 140 72" style="enable-background:new 0 0 140 72;" xml:space="preserve">
<style type="text/css">
	.st0{opacity:0.7;}
	.st1{fill:#6B6B83;}
</style>
<g class="st0">
	<path class="st1" d="M28.2,18.5v6.2h6.5v-6.2h3.5v16.1h-3.5v-7h-6.5v7h-3.5V18.5H28.2z"/>
	<path class="st1" d="M43.1,31.8c0.5,0.5,1.2,0.7,2.1,0.7c0.6,0,1.2-0.2,1.7-0.5s0.8-0.7,0.9-1h2.8c-0.5,1.4-1.1,2.4-2.1,3
		c-0.9,0.6-2.1,0.9-3.4,0.9c-0.9,0-1.7-0.1-2.5-0.4c-0.7-0.3-1.4-0.7-1.9-1.3c-0.5-0.5-0.9-1.2-1.2-1.9c-0.3-0.8-0.4-1.6-0.4-2.5
		s0.1-1.7,0.4-2.4c0.3-0.8,0.7-1.4,1.2-2s1.2-1,1.9-1.3s1.5-0.5,2.4-0.5c1,0,1.9,0.2,2.6,0.6c0.7,0.4,1.3,0.9,1.8,1.5s0.8,1.4,1,2.2
		s0.3,1.7,0.2,2.6h-8.4C42.4,30.6,42.6,31.3,43.1,31.8z M46.7,25.6c-0.4-0.4-1-0.6-1.8-0.6c-0.5,0-0.9,0.1-1.3,0.3
		c-0.3,0.2-0.6,0.4-0.8,0.6c-0.2,0.3-0.3,0.5-0.4,0.8c-0.1,0.3-0.1,0.5-0.1,0.8h5.2C47.4,26.7,47.1,26.1,46.7,25.6z"/>
	<path class="st1" d="M55,18.5v16.1h-3.2V18.5H55z"/>
	<path class="st1" d="M59.5,34.6l-4-11.7h3.4l2.5,8l0,0l2.5-8h3.2l-4,11.7C63.1,34.6,59.5,34.6,59.5,34.6z"/>
	<path class="st1" d="M70.9,31.8c0.5,0.5,1.2,0.7,2.1,0.7c0.6,0,1.2-0.2,1.7-0.5s0.8-0.7,0.9-1h2.8c-0.5,1.4-1.1,2.4-2.1,3
		c-0.9,0.6-2.1,0.9-3.4,0.9c-0.9,0-1.7-0.1-2.5-0.4c-0.7-0.3-1.4-0.7-1.9-1.3c-0.5-0.5-0.9-1.2-1.2-1.9c-0.3-0.8-0.4-1.6-0.4-2.5
		s0.1-1.7,0.4-2.4c0.3-0.8,0.7-1.4,1.2-2s1.2-1,1.9-1.3c0.7-0.3,1.5-0.5,2.4-0.5c1,0,1.9,0.2,2.6,0.6c0.7,0.4,1.3,0.9,1.8,1.5
		s0.8,1.4,1,2.2s0.3,1.7,0.2,2.6H70C70.2,30.6,70.4,31.3,70.9,31.8z M74.6,25.6c-0.4-0.4-1-0.6-1.8-0.6c-0.5,0-0.9,0.1-1.3,0.3
		c-0.3,0.2-0.6,0.4-0.8,0.6c-0.2,0.3-0.3,0.5-0.4,0.8s-0.1,0.5-0.1,0.8h5.2C75.2,26.7,74.9,26.1,74.6,25.6z"/>
	<path class="st1" d="M86,22.9V25h-2.3v5.8c0,0.5,0.1,0.9,0.3,1.1c0.2,0.2,0.5,0.3,1.1,0.3c0.2,0,0.4,0,0.5,0c0.2,0,0.3,0,0.5-0.1
		v2.5c-0.3,0-0.6,0.1-0.9,0.1s-0.7,0-1,0c-0.5,0-1,0-1.4-0.1s-0.8-0.2-1.2-0.4c-0.3-0.2-0.6-0.5-0.8-0.8c-0.2-0.4-0.3-0.8-0.3-1.4
		v-6.9h-1.9V23h1.9v-3.5h3.2V23L86,22.9L86,22.9z"/>
	<path class="st1" d="M87.1,21.1v-2.6h3.2v2.6H87.1z M90.3,22.9v11.7h-3.2V22.9H90.3z"/>
	<path class="st1" d="M97.6,25c-0.5,0-0.9,0.1-1.3,0.3c-0.3,0.2-0.6,0.5-0.8,0.9C95.2,26.6,95,27,95,27.5c-0.1,0.4-0.1,0.9-0.1,1.3
		c0,0.4,0,0.9,0.1,1.3c0.1,0.4,0.2,0.8,0.4,1.2s0.5,0.6,0.8,0.9s0.8,0.3,1.3,0.3c0.8,0,1.4-0.2,1.8-0.6s0.7-1,0.8-1.7h3.1
		c-0.2,1.6-0.8,2.7-1.8,3.5s-2.3,1.2-3.8,1.2c-0.9,0-1.7-0.1-2.4-0.4c-0.7-0.3-1.4-0.7-1.9-1.2s-0.9-1.2-1.2-1.9
		c-0.3-0.7-0.4-1.5-0.4-2.4s0.1-1.7,0.4-2.5s0.7-1.4,1.2-2s1.1-1,1.9-1.3c0.7-0.3,1.6-0.5,2.5-0.5c0.7,0,1.4,0.1,2,0.3
		s1.2,0.5,1.7,0.8c0.5,0.4,0.9,0.8,1.2,1.4c0.3,0.5,0.5,1.2,0.5,2H100C99.7,25.7,98.9,25,97.6,25z"/>
	<path class="st1" d="M104.3,26.5c0-0.8,0.2-1.4,0.6-1.9c0.3-0.5,0.8-0.9,1.3-1.2s1.1-0.5,1.7-0.6s1.3-0.2,1.9-0.2s1.2,0,1.8,0.1
		c0.6,0.1,1.2,0.2,1.6,0.5c0.5,0.2,0.9,0.6,1.2,1c0.3,0.4,0.5,1,0.5,1.7V32c0,0.5,0,1,0.1,1.5s0.2,0.8,0.3,1.1H112
		c-0.1-0.2-0.1-0.4-0.1-0.6s-0.1-0.4-0.1-0.6c-0.5,0.5-1.1,0.9-1.8,1.1c-0.7,0.2-1.4,0.3-2.1,0.3c-0.6,0-1.1-0.1-1.6-0.2
		s-0.9-0.3-1.3-0.6c-0.4-0.3-0.6-0.6-0.8-1.1c-0.2-0.4-0.3-1-0.3-1.6c0-0.7,0.1-1.2,0.3-1.6c0.2-0.4,0.5-0.8,0.9-1
		c0.4-0.3,0.8-0.4,1.3-0.6c0.5-0.1,1-0.2,1.4-0.3c0.5-0.1,1-0.1,1.4-0.2c0.5,0,0.9-0.1,1.2-0.2c0.4-0.1,0.6-0.2,0.9-0.4
		c0.2-0.2,0.3-0.4,0.3-0.8c0-0.3-0.1-0.6-0.2-0.8s-0.3-0.4-0.5-0.5s-0.4-0.2-0.7-0.2c-0.2,0-0.5-0.1-0.8-0.1c-0.6,0-1.1,0.1-1.5,0.4
		c-0.4,0.3-0.6,0.7-0.6,1.4L104.3,26.5L104.3,26.5z M111.8,28.9c-0.1,0.1-0.3,0.2-0.5,0.3s-0.4,0.1-0.7,0.2c-0.2,0-0.5,0.1-0.7,0.1
		c-0.3,0-0.5,0.1-0.8,0.1c-0.2,0-0.5,0.1-0.7,0.2c-0.2,0.1-0.4,0.2-0.6,0.3s-0.3,0.3-0.4,0.5s-0.2,0.4-0.2,0.7
		c0,0.3,0.1,0.5,0.2,0.7s0.2,0.4,0.4,0.5c0.2,0.1,0.4,0.2,0.6,0.2s0.5,0.1,0.7,0.1c0.6,0,1.1-0.1,1.5-0.3c0.3-0.2,0.6-0.5,0.8-0.8
		c0.2-0.3,0.3-0.6,0.3-0.9s0.1-0.5,0.1-0.7C111.8,30.1,111.8,28.9,111.8,28.9z"/>
	<path class="st1" d="M32.2,37.1c0.8,0,1.5,0.1,2.1,0.2s1.2,0.4,1.6,0.7c0.5,0.3,0.8,0.7,1,1.2s0.4,1.1,0.4,1.9s-0.2,1.5-0.6,2
		c-0.4,0.5-0.9,1-1.6,1.3c1,0.3,1.7,0.8,2.2,1.5s0.7,1.6,0.7,2.6c0,0.8-0.2,1.5-0.5,2.1s-0.7,1.1-1.3,1.5c-0.5,0.4-1.1,0.7-1.8,0.8
		c-0.7,0.2-1.4,0.3-2.1,0.3h-7.8V37.1H32.2z M31.8,43.6c0.6,0,1.2-0.2,1.6-0.5c0.4-0.3,0.6-0.8,0.6-1.5c0-0.4-0.1-0.7-0.2-0.9
		c-0.1-0.2-0.3-0.4-0.5-0.6c-0.3,0-0.6-0.1-0.9-0.1c-0.3-0.1-0.6-0.1-0.9-0.1h-3.3v3.8h3.6V43.6z M32,50.5c0.3,0,0.7,0,1-0.1
		s0.6-0.2,0.8-0.3c0.2-0.2,0.4-0.4,0.6-0.6c0.1-0.3,0.2-0.6,0.2-1c0-0.8-0.2-1.4-0.7-1.8s-1.1-0.5-1.9-0.5h-3.9v4.4L32,50.5L32,50.5
		z"/>
	<path class="st1" d="M42.6,37.1v16.1h-3.2V37.1H42.6z"/>
	<path class="st1" d="M44.1,45.2c0-0.8,0.2-1.4,0.6-1.9c0.3-0.5,0.8-0.9,1.3-1.2c0.5-0.3,1.1-0.5,1.7-0.6c0.6-0.1,1.3-0.2,1.9-0.2
		c0.6,0,1.2,0,1.8,0.1s1.2,0.2,1.6,0.5c0.5,0.2,0.9,0.6,1.2,1s0.5,1,0.5,1.7v6.1c0,0.5,0,1,0.1,1.5s0.2,0.8,0.3,1.1h-3.3
		c-0.1-0.2-0.1-0.4-0.1-0.6s-0.1-0.4-0.1-0.6c-0.5,0.5-1.1,0.9-1.8,1.1s-1.4,0.3-2.1,0.3c-0.6,0-1.1-0.1-1.6-0.2s-0.9-0.3-1.3-0.6
		c-0.4-0.3-0.6-0.6-0.8-1.1c-0.2-0.4-0.3-1-0.3-1.6c0-0.7,0.1-1.2,0.3-1.6s0.5-0.8,0.9-1c0.4-0.3,0.8-0.4,1.3-0.6
		c0.5-0.1,1-0.2,1.4-0.3c0.5-0.1,1-0.1,1.4-0.2c0.5,0,0.9-0.1,1.2-0.2c0.4-0.1,0.6-0.2,0.9-0.4c0.2-0.2,0.3-0.4,0.3-0.8
		c0-0.3-0.1-0.6-0.2-0.8s-0.3-0.4-0.5-0.5s-0.4-0.2-0.7-0.2c-0.2,0-0.5-0.1-0.8-0.1c-0.6,0-1.1,0.1-1.5,0.4s-0.6,0.7-0.6,1.4
		L44.1,45.2L44.1,45.2z M51.5,47.5c-0.1,0.1-0.3,0.2-0.5,0.3c-0.2,0.1-0.4,0.1-0.7,0.2c-0.2,0-0.5,0.1-0.7,0.1
		c-0.3,0-0.5,0.1-0.8,0.1c-0.2,0-0.5,0.1-0.7,0.2s-0.4,0.2-0.6,0.3c-0.2,0.1-0.3,0.3-0.4,0.5c-0.1,0.2-0.2,0.4-0.2,0.7
		c0,0.3,0.1,0.5,0.2,0.7c0.1,0.2,0.2,0.4,0.4,0.5s0.4,0.2,0.6,0.2c0.2,0,0.5,0.1,0.7,0.1c0.6,0,1.1-0.1,1.5-0.3
		c0.3-0.2,0.6-0.5,0.8-0.8s0.3-0.6,0.3-0.9s0.1-0.5,0.1-0.7C51.5,48.7,51.5,47.5,51.5,47.5z"/>
	<path class="st1" d="M61.8,43.7c-0.5,0-0.9,0.1-1.3,0.3c-0.3,0.2-0.6,0.5-0.8,0.9s-0.4,0.8-0.5,1.2s-0.1,0.9-0.1,1.3s0,0.9,0.1,1.3
		s0.2,0.8,0.4,1.2s0.5,0.6,0.8,0.9c0.3,0.2,0.8,0.3,1.3,0.3c0.8,0,1.4-0.2,1.8-0.6c0.4-0.4,0.7-1,0.8-1.7h3.1
		c-0.2,1.6-0.8,2.7-1.8,3.5s-2.3,1.2-3.8,1.2c-0.9,0-1.7-0.1-2.4-0.4s-1.4-0.7-1.9-1.2s-0.9-1.2-1.2-1.9c-0.3-0.7-0.4-1.5-0.4-2.4
		s0.1-1.7,0.4-2.5c0.3-0.8,0.7-1.4,1.2-2s1.1-1,1.9-1.3c0.7-0.3,1.6-0.5,2.5-0.5c0.7,0,1.4,0.1,2,0.3c0.6,0.2,1.2,0.5,1.7,0.8
		s0.9,0.8,1.2,1.4c0.3,0.5,0.5,1.2,0.5,2h-3.1C64,44.3,63.2,43.7,61.8,43.7z"/>
	<path class="st1" d="M71.4,37.1v8.6l4-4.2h3.8l-4.4,4.3l4.9,7.4h-3.9L72.6,48l-1.2,1.2v4h-3.2V37.1H71.4z"/>
	<path class="st1" d="M80,38.4c0.1-0.3,0.3-0.5,0.5-0.7s0.4-0.3,0.7-0.4c0.3-0.1,0.5-0.2,0.8-0.2s0.6,0.1,0.8,0.2
		c0.3,0.1,0.5,0.2,0.7,0.4c0.2,0.2,0.4,0.4,0.5,0.7c0.1,0.3,0.2,0.6,0.2,0.9s-0.1,0.6-0.2,0.9s-0.3,0.5-0.5,0.7s-0.4,0.3-0.7,0.4
		c-0.3,0.1-0.5,0.2-0.8,0.2s-0.6-0.1-0.8-0.2c-0.3-0.1-0.5-0.2-0.7-0.4c-0.2-0.2-0.4-0.4-0.5-0.7c-0.1-0.3-0.2-0.6-0.2-0.9
		S79.8,38.7,80,38.4z M80.5,40c0.1,0.2,0.2,0.4,0.3,0.5c0.1,0.2,0.3,0.3,0.5,0.4C81.6,41,81.8,41,82,41s0.4,0,0.6-0.1
		s0.4-0.2,0.5-0.4c0.1-0.2,0.3-0.3,0.3-0.5c0.1-0.2,0.1-0.4,0.1-0.7c0-0.2,0-0.5-0.1-0.7s-0.2-0.4-0.3-0.5c-0.1-0.2-0.3-0.3-0.5-0.4
		s-0.4-0.1-0.6-0.1s-0.4,0-0.6,0.1s-0.4,0.2-0.5,0.4c-0.1,0.2-0.3,0.3-0.3,0.5c-0.1,0.2-0.1,0.4-0.1,0.7
		C80.4,39.6,80.4,39.8,80.5,40z M82,38.1c0.3,0,0.5,0.1,0.7,0.2s0.2,0.3,0.2,0.6c0,0.1,0,0.2,0,0.3c0,0.1-0.1,0.1-0.1,0.2
		c-0.1,0.1-0.1,0.1-0.2,0.1s-0.2,0-0.2,0.1l0.6,1.1h-0.5l-0.6-1h-0.3v1h-0.5v-2.4H82V38.1z M82,39.1c0.1,0,0.3,0,0.3-0.1
		c0.1,0,0.1-0.1,0.1-0.3c0-0.1,0-0.1,0-0.2l-0.1-0.1c0,0-0.1,0-0.2,0s-0.1,0-0.2,0h-0.4V39L82,39.1L82,39.1z"/>
</g>
</svg>
