<?xml version="1.0" encoding="utf-8"?>
<!-- Generator: Adobe Illustrator 24.2.1, SVG Export Plug-In . SVG Version: 6.00 Build 0)  -->
<svg version="1.1" id="Ebene_1" xmlns="http://www.w3.org/2000/svg" xmlns:xlink="http://www.w3.org/1999/xlink" x="0px" y="0px"
	 width="140px" height="140px" viewBox="0 0 140 140" style="enable-background:new 0 0 140 140;" xml:space="preserve">
<style type="text/css">
	.st0{fill:#FFFFFF;}
</style>
<g>
	<g>
		<g>
			<rect x="64.2" y="62.1" width="41.3" height="13"/>
			<circle cx="36.6" cy="65.7" r="7.5"/>
			<circle cx="47.1" cy="72.7" r="15.5"/>
			<circle cx="58.7" cy="78.2" r="9.4"/>
			<circle cx="58.5" cy="64.8" r="10.2"/>
			<circle cx="70.6" cy="57.7" r="5.8"/>
			<circle cx="95.2" cy="59.8" r="6.6"/>
			<circle cx="99" cy="79.1" r="7.9"/>
			<circle cx="103" cy="68.6" r="7.9"/>
			<circle cx="78.7" cy="59.7" r="3.9"/>
			<circle cx="72.1" cy="78.1" r="7.4"/>
			<circle cx="72.1" cy="63.8" r="7.4"/>
			<circle cx="85" cy="74.1" r="13.7"/>
			<circle cx="85.5" cy="71.3" r="13.7"/>
		</g>
	</g>
	<g>
		<path class="st0" d="M56.6,77.3v3.1h-1.9c-1.1,0-1.9-0.2-2.4-0.7s-0.7-1.1-0.7-2c-1.3,1.9-3.1,2.9-5.5,2.9c-1.9,0-3.4-0.4-4.5-1.3
			c-1.1-0.9-1.7-2.1-1.7-3.6c0-1.7,0.6-3,1.8-4c1.2-0.9,3-1.4,5.3-1.4h4.2v-1c0-0.9-0.3-1.7-1-2.2s-1.6-0.8-2.7-0.8
			c-1,0-1.9,0.2-2.5,0.7c-0.7,0.4-1.1,1-1.2,1.8h-3.5c0.2-1.7,0.9-3,2.2-3.9s3-1.4,5.1-1.4c2.2,0,4,0.5,5.2,1.6
			c1.2,1,1.8,2.6,1.8,4.5v6.6c0,0.8,0.4,1.2,1.1,1.2L56.6,77.3L56.6,77.3z M51.2,73h-4.4c-1.1,0-1.9,0.2-2.5,0.6s-0.9,1.1-0.9,1.9
			c0,0.7,0.3,1.3,0.8,1.7c0.6,0.4,1.3,0.7,2.3,0.7c1.5,0,2.6-0.4,3.4-1.2c0.8-0.8,1.2-1.8,1.3-3.1C51.2,73.6,51.2,73,51.2,73z"/>
		<path class="st0" d="M67.1,63.7V67h-1.6c-1.5,0-2.5,0.5-3.2,1.4s-1,2.2-1,3.6v8.4h-3.5V63.7h3.1l0.4,2.5c0.5-0.8,1.1-1.4,1.9-1.8
			c0.8-0.4,1.8-0.7,3.1-0.7H67.1z"/>
		<path class="st0" d="M72,57.6c0.4,0.4,0.6,0.9,0.6,1.5c0,0.6-0.2,1.1-0.6,1.5c-0.4,0.4-0.9,0.6-1.5,0.6S69.4,61,69,60.6
			c-0.4-0.4-0.6-0.9-0.6-1.5c0-0.6,0.2-1.1,0.6-1.5c0.4-0.4,0.9-0.6,1.5-0.6C71.1,56.9,71.6,57.1,72,57.6z M68.7,63.7h3.5v16.7h-3.5
			V63.7z"/>
		<path class="st0" d="M91.1,77.3v3.1h-1.9c-1.1,0-1.9-0.2-2.4-0.7s-0.7-1.1-0.7-2c-1.3,1.9-3.1,2.9-5.5,2.9c-1.9,0-3.4-0.4-4.5-1.3
			c-1.1-0.9-1.7-2.1-1.7-3.6c0-1.7,0.6-3,1.8-4c1.2-0.9,3-1.4,5.3-1.4h4.2v-1c0-0.9-0.3-1.7-1-2.2s-1.6-0.8-2.7-0.8
			c-1,0-1.9,0.2-2.5,0.7c-0.7,0.4-1.1,1-1.2,1.8h-3.5c0.2-1.7,0.9-3,2.2-3.9c1.3-0.9,3-1.4,5.1-1.4c2.2,0,4,0.5,5.2,1.6
			c1.2,1,1.8,2.6,1.8,4.5v6.6c0,0.8,0.4,1.2,1.1,1.2L91.1,77.3L91.1,77.3z M85.8,73h-4.4c-1.1,0-1.9,0.2-2.5,0.6s-0.9,1.1-0.9,1.9
			c0,0.7,0.3,1.3,0.8,1.7c0.6,0.4,1.3,0.7,2.3,0.7c1.5,0,2.6-0.4,3.4-1.2c0.8-0.8,1.2-1.8,1.3-3.1C85.8,73.6,85.8,73,85.8,73z"/>
		<path class="st0" d="M93,57.5h3.5v22.9H93V57.5z"/>
	</g>
</g>
</svg>
