<?xml version="1.0" encoding="utf-8"?>
<!-- Generator: Adobe Illustrator 24.2.1, SVG Export Plug-In . SVG Version: 6.00 Build 0)  -->
<svg version="1.1" id="Ebene_1" xmlns="http://www.w3.org/2000/svg" xmlns:xlink="http://www.w3.org/1999/xlink" x="0px" y="0px"
	 width="140px" height="72px" viewBox="0 0 140 72" style="enable-background:new 0 0 140 72;" xml:space="preserve">
<style type="text/css">
	.st0{opacity:0.7;}
	.st1{fill:#6B6B83;}
</style>
<g class="st0">
	<path class="st1" d="M30.1,42.1v2.3h-1.4c-0.8,0-1.4-0.2-1.7-0.5c-0.3-0.3-0.5-0.8-0.5-1.5c-0.9,1.4-2.3,2.1-4.1,2.1
		c-1.4,0-2.4-0.3-3.3-1c-0.8-0.7-1.2-1.5-1.2-2.6c0-1.2,0.4-2.2,1.3-2.9c0.9-0.7,2.2-1,3.9-1h3.1v-0.7c0-0.7-0.2-1.2-0.7-1.6
		s-1.1-0.6-2-0.6c-0.7,0-1.4,0.2-1.9,0.5s-0.8,0.7-0.9,1.3h-2.5c0.2-1.2,0.7-2.2,1.6-2.8c1-0.7,2.2-1,3.7-1c1.6,0,2.9,0.4,3.8,1.1
		s1.3,1.9,1.3,3.3v4.6c0,0.6,0.2,0.9,0.8,0.9L30.1,42.1L30.1,42.1z M26.2,38.8H23c-0.8,0-1.4,0.2-1.9,0.5c-0.4,0.3-0.7,0.7-0.7,1.4
		c0,0.5,0.2,1,0.6,1.3s1,0.5,1.6,0.5c1.1,0,1.9-0.3,2.5-0.9s0.9-1.3,0.9-2.3L26.2,38.8L26.2,38.8z"/>
	<path class="st1" d="M29.1,32.1h2.8l2.8,9.4l2.8-9.4h2.4l2.7,9.4l2.9-9.4H48l-4.1,12.3h-2.8L38.5,36l-2.7,8.3H33L29.1,32.1z"/>
	<g>
		<polygon class="st1" points="63,32.1 60.2,41.4 57.5,32.1 55.1,32.1 52.3,41.4 49.5,32.1 49.5,32.1 48.1,36.2 50.7,44.3 
			53.6,44.3 56.3,36 58.9,44.3 61.6,44.3 65.7,32.1 		"/>
	</g>
	<g>
		<polygon class="st1" points="80.9,32.1 78.1,41.4 75.4,32.1 72.9,32.1 70.2,41.4 67.4,32.1 67.4,32.1 66,36.2 68.6,44.3 
			71.5,44.3 74.1,36 76.7,44.3 79.4,44.3 83.5,32.1 		"/>
	</g>
	<path class="st1" d="M95.3,42.1v2.3h-1.4c-0.8,0-1.4-0.2-1.7-0.5c-0.3-0.3-0.5-0.8-0.5-1.5c-0.9,1.4-2.3,2.1-4.1,2.1
		c-1.4,0-2.4-0.3-3.3-1c-0.8-0.7-1.2-1.5-1.2-2.7s0.4-2.2,1.3-2.9c0.9-0.7,2.2-1,3.9-1h3.1v-0.7c0-0.7-0.2-1.2-0.7-1.6
		s-1.1-0.6-2-0.6c-0.7,0-1.4,0.2-1.9,0.5s-0.8,0.7-0.9,1.3h-2.5c0.2-1.2,0.7-2.2,1.6-2.8s2.2-1,3.7-1c1.6,0,2.9,0.4,3.8,1.1
		s1.3,1.9,1.3,3.3v4.7c0,0.6,0.2,0.9,0.8,0.9L95.3,42.1L95.3,42.1z M91.4,38.8h-3.2c-0.8,0-1.4,0.2-1.9,0.5
		c-0.4,0.3-0.7,0.7-0.7,1.4c0,0.5,0.2,1,0.6,1.3s1,0.5,1.6,0.5c1.1,0,1.9-0.3,2.5-0.9s0.9-1.3,0.9-2.3L91.4,38.8L91.4,38.8z"/>
	<path class="st1" d="M103.5,32.1v2.4h-1.1c-1.1,0-1.9,0.3-2.4,1.1c-0.5,0.7-0.7,1.5-0.7,2.6v6.2h-2.6V32.1H99l0.3,1.9
		c0.3-0.6,0.8-1.1,1.4-1.4s1.3-0.5,2.3-0.5H103.5z"/>
	<path class="st1" d="M116.4,27.5v16.8h-2.3l-0.3-1.9c-1,1.3-2.3,2-4,2c-1.1,0-2.1-0.2-3-0.7s-1.5-1.2-2-2.2s-0.7-2-0.7-3.3
		c0-1.2,0.2-2.4,0.7-3.3c0.5-1,1.2-1.7,2-2.2c0.9-0.5,1.9-0.8,2.9-0.8c0.9,0,1.7,0.2,2.4,0.5s1.2,0.8,1.6,1.4v-6.2h2.7V27.5z
		 M112.9,41.1c0.7-0.7,1-1.7,1-2.9s-0.3-2.2-1-3c-0.7-0.7-1.5-1.1-2.6-1.1s-2,0.4-2.6,1.1c-0.7,0.7-1,1.7-1,2.9c0,1.2,0.3,2.2,1,2.9
		c0.7,0.7,1.5,1.1,2.6,1.1S112.2,41.9,112.9,41.1z"/>
	<path class="st1" d="M119.2,41.7c0.3-0.3,0.7-0.5,1.2-0.5s0.9,0.2,1.2,0.5c0.3,0.3,0.5,0.7,0.5,1.1c0,0.5-0.2,0.9-0.5,1.1
		c-0.3,0.3-0.7,0.5-1.2,0.5s-0.9-0.2-1.2-0.5c-0.3-0.3-0.5-0.7-0.5-1.1C118.7,42.3,118.9,41.9,119.2,41.7z"/>
</g>
</svg>
