<svg width="140" height="140" viewBox="0 0 140 140" fill="none" xmlns="http://www.w3.org/2000/svg">
<path d="M109.125 70C109.125 91.625 91.625 109.125 70 109.125C48.375 109.125 30.875 91.625 30.875 70C30.875 48.375 48.375 30.875 70 30.875C91.625 30.875 109.125 48.375 109.125 70ZM70 33.25C49.625 33.25 33.25 49.625 33.25 70C33.25 90.375 49.75 106.75 70 106.75C90.375 106.75 106.75 90.25 106.75 70C106.75 49.625 90.375 33.25 70 33.25Z" fill="url(#paint0_linear_345_36)"/>
<path d="M70 33.25C49.625 33.25 33.25 49.625 33.25 70C33.25 90.375 49.75 106.75 70 106.75C90.375 106.75 106.75 90.25 106.75 70C106.75 49.625 90.375 33.25 70 33.25ZM70 104.375C51 104.375 35.625 89 35.625 70C35.625 51 51 35.625 70 35.625C89 35.625 104.375 51 104.375 70C104.375 89 89 104.375 70 104.375Z" fill="url(#paint1_linear_345_36)"/>
<path opacity="0.4" d="M70 109.125C91.625 109.125 109.125 91.625 109.125 70C109.125 48.375 91.625 30.875 70 30.875C48.375 30.875 30.875 48.375 30.875 70C30.875 91.625 48.375 109.125 70 109.125ZM70 30C92 30 110 48 110 70C110 92 92 110 70 110C48 110 30 92 30 70C30 48 48 30 70 30Z" fill="url(#paint2_linear_345_36)"/>
<path d="M32.75 70.125C32.75 49.625 49.375 32.75 70 32.75C90.625 32.75 107.25 49.5 107.25 70.125C107.25 90.625 90.625 107.25 70 107.25C49.375 107.25 32.75 90.625 32.75 70.125ZM44.375 44.375C37.75 51 33.625 60.125 33.625 70.125C33.625 80.125 37.75 89.25 44.25 95.75C50.875 102.25 60 106.375 70 106.375C80 106.375 89.125 102.375 95.625 95.75C102.25 89.25 106.25 80.125 106.25 70.125C106.25 60.125 102.125 51 95.625 44.375C89.125 37.75 80 33.625 70 33.625C60 33.625 50.875 37.75 44.375 44.375Z" fill="white"/>
<path opacity="0.4" d="M70 104.5C60.75 104.5 52.125 100.875 45.625 94.375C39.125 87.875 35.5 79.25 35.5 70C35.5 60.75 39.125 52.125 45.625 45.625C52.125 39.125 60.75 35.5 70 35.5C79.25 35.5 87.875 39.125 94.375 45.625C100.875 52.125 104.5 60.75 104.5 70C104.5 79.25 100.875 87.875 94.375 94.375C87.875 100.875 79.25 104.5 70 104.5ZM70 103.5C78.875 103.5 87.375 100 93.625 93.75C100 87.375 103.375 79 103.375 70.125C103.375 61.25 99.875 52.75 93.625 46.5C87.25 40.125 78.875 36.75 70 36.75C61.125 36.75 52.625 40.25 46.375 46.5C40 52.625 36.5 61.125 36.5 70C36.5 78.875 40 87.375 46.25 93.625C52.625 100 61.125 103.5 70 103.5Z" fill="url(#paint3_linear_345_36)"/>
<path d="M100.375 86.25C99.75 85.75 75.625 66.625 75.625 66.625L70 34.5C69.625 34.625 69.125 35 68.875 35.5L64.875 66.75L40 85.875C40 85.875 39.5 86.5 39.25 86.875C39.125 87.125 39.125 87.5 39.125 87.875L69.875 75.25L100.625 87.875C100.875 87.25 100.625 86.625 100.375 86.25Z" fill="white"/>
<path d="M70.25 71L70 76.75L98.25 88.125C99.25 88.625 100 88.375 100.75 87.875L70.625 70.875C70.5 70.75 70.25 70.875 70.25 71Z" fill="#565F64"/>
<path d="M70.25 71C70.25 71 71.875 73.875 73.75 75.875C76.375 78.75 79.875 80.75 79.875 80.75L98.25 88.125C99.25 88.625 100 88.375 100.75 87.875L70.625 70.875C70.5 70.75 70.25 70.875 70.25 71Z" fill="url(#paint4_linear_345_36)"/>
<path d="M100.625 86.75C100.625 86.625 100.5 86.5 100.375 86.25L74.625 67.375L71.125 69.625C71.125 69.625 71.375 69.75 71.5 69.625C71.875 69.5 72.625 69.375 73.375 69.625C74 69.875 100.625 86.875 100.625 86.875C100.625 86.875 100.625 86.875 100.625 86.75Z" fill="#A4AAAE" fill-opacity="0.6"/>
<path d="M99.75 85.625L75.75 66.625L74.625 67.375L100.375 86.375C100.25 86.125 100 85.875 99.75 85.625Z" fill="#333E46"/>
<path d="M70.625 69.125C70.5 69.25 70.5 69.25 70.5 69.25C70.5 69.25 70.5 69.5 70.75 69.375C70.875 69.25 74.5 67.375 75.75 66.625L71.375 36.625C71.25 35.5 70.75 35 69.875 34.625L70.375 69.375L70.625 69.125Z" fill="#565F64"/>
<path d="M68.5 36.625V38.25L65.75 65.875C65.75 66.25 65.875 66.625 66.25 66.875L67.875 68.125L69 37.625L69.125 35.25C68.75 35.5 68.625 36 68.5 36.625Z" fill="#A4AAAE" fill-opacity="0.6"/>
<path d="M67 68.625L65.5 67.375L40.125 85.75C40.125 85.75 39.375 86.25 39.25 86.75L40.125 86.25L66.75 69.5C67.25 69.25 67.375 69 67 68.625Z" fill="#A4AAAE" fill-opacity="0.6"/>
<path d="M69.625 71C69.625 70.875 69.5 70.75 69.375 70.875L39.125 88C39.875 88.5 40.625 88.625 41.625 88.25L69.875 76.875L69.625 71Z" fill="#565F64"/>
<path d="M70.5 69.25L70.625 69.125C70.5 69.25 70.5 69.25 70.5 69.25C70.5 69.25 70.5 69.375 70.625 69.375H70.75C70.875 69.25 74.5 67.375 75.75 66.625L75.25 63L71.375 36.625C71.375 36.125 71.25 35.75 71 35.5C71 35.5 72.875 60.75 72.875 63.5C72.875 67.125 70.5 69.25 70.5 69.25Z" fill="url(#paint5_linear_345_36)"/>
<path d="M69.625 71C69.625 70.875 69.5 70.75 69.375 70.875L39.125 88C39.875 88.5 40.625 88.625 41.625 88.25L69.875 76.875L69.625 71Z" fill="url(#paint6_linear_345_36)" fill-opacity="0.8"/>
<path opacity="0.8" d="M41.625 88.125L69.875 76.75L69.625 71.25C69.125 72.75 68.25 74.375 65.875 75.625C64.125 76.625 47.375 84.875 41.375 87.75C41 88 40.5 88.125 40.25 88.25C40.75 88.5 41.125 88.375 41.625 88.125Z" fill="url(#paint7_linear_345_36)"/>
<path d="M70.625 69.125C70.5 69.25 70.5 69.25 70.5 69.25C70.5 69.25 70.5 69.5 70.75 69.375C70.875 69.25 74.5 67.375 75.75 66.625L71.375 36.625C71.25 35.5 70.75 35 69.875 34.625L70.375 69.375L70.625 69.125Z" fill="url(#paint8_linear_345_36)"/>
<path d="M70.625 69.125C70.5 69.25 70.5 69.25 70.5 69.25C70.5 69.25 70.5 69.5 70.75 69.375C70.875 69.25 74.5 67.375 75.75 66.625L71.375 36.625C71.25 35.5 70.75 35 69.875 34.625L70.375 69.375L70.625 69.125Z" fill="url(#paint9_linear_345_36)"/>
<path d="M36.375 85.5C35.5 83.5 30.5 73.75 36 55H33.875C32.75 58.75 31.875 61 31.375 64.375C31.375 64.375 31.125 65.625 31 67C30.875 68.375 30.875 69.125 30.875 70C30.875 77.5 32.75 81.875 32.75 81.875C34.75 88.125 38.25 93.75 43 98C47.125 101.625 53.5 104.375 58.75 105.375C57.875 105.25 42.875 98.875 36.375 85.5Z" fill="url(#paint10_linear_345_36)"/>
<path d="M70.5 70.75H69.375C69.5 70.75 69.625 70.75 69.625 70.875L69.875 76.625H70L70.25 70.875C70.25 70.75 70.375 70.625 70.5 70.75Z" fill="url(#paint11_linear_345_36)"/>
<path d="M82.5 32.875C95.625 37.875 108 51.625 108 69C108 90 91.25 107.125 70 107.125V109.125C91.25 109.125 109.125 91.625 109.125 70C109.125 52.75 98.125 38.25 82.5 32.875Z" fill="url(#paint12_linear_345_36)"/>
<path d="M103.5 55.25C94.75 35.125 75 34 73.875 33.875C73.875 33.875 73.875 33.875 73.75 33.875C88.875 36.625 98.5 46.5 101.875 56.875V57C103.375 61 104.125 65.25 104.25 69.875C104.375 74.25 103.375 79.125 101.5 83.625C101.375 84.25 101.25 85 101.125 85H103.125C109.125 73.75 106.5 62.375 103.5 55.25Z" fill="url(#paint13_linear_345_36)"/>
<path d="M32.75 70.125C32.75 49.625 49.375 32.75 70 32.75C90.625 32.75 107.25 49.5 107.25 70.125C107.25 90.625 90.625 107.25 70 107.25C49.375 107.25 32.75 90.625 32.75 70.125ZM44.375 44.375C37.75 51 33.625 60.125 33.625 70.125C33.625 80.125 37.75 89.25 44.25 95.75C50.875 102.25 60 106.375 70 106.375C80 106.375 89.125 102.375 95.625 95.75C102.25 89.25 106.25 80.125 106.25 70.125C106.25 60.125 102.125 51 95.625 44.375C89.125 37.75 80 33.625 70 33.625C60 33.625 50.875 37.75 44.375 44.375Z" fill="#FBFBFB"/>
<path d="M39.875 86L65.375 67.625C66.75 68.375 69 69.375 69.25 69.375C69.5 69.5 69.5 69.25 69.5 69.25L66.375 66.625C66 66.375 65.875 66 65.875 65.625L68.875 35.5C68.75 35.625 68.75 35.875 68.625 36C68.5 36.25 68.5 36.375 68.5 36.625L64.125 66.75L40.125 85.625C40 85.75 39.875 85.875 39.875 86Z" fill="#333F47"/>
<defs>
<linearGradient id="paint0_linear_345_36" x1="40" y1="44.875" x2="100" y2="95.125" gradientUnits="userSpaceOnUse">
<stop stop-color="white"/>
<stop offset="0.1" stop-color="#CDD0D0"/>
<stop offset="0.2" stop-color="#A5ACAF"/>
<stop offset="0.3" stop-color="#98A0A4"/>
<stop offset="0.4" stop-color="#828A8F"/>
<stop offset="0.5" stop-color="#667075"/>
<stop offset="0.6" stop-color="#535C63"/>
<stop offset="0.7" stop-color="#475158"/>
<stop offset="0.8" stop-color="#434D54"/>
<stop offset="1" stop-color="#475157"/>
</linearGradient>
<linearGradient id="paint1_linear_345_36" x1="41.875" y1="46.375" x2="98.125" y2="93.625" gradientUnits="userSpaceOnUse">
<stop stop-color="#0B1F2A"/>
<stop offset="0.2" stop-color="#333F47"/>
<stop offset="0.5" stop-color="#81898D"/>
<stop offset="0.7" stop-color="#B3B8B8"/>
<stop offset="0.8" stop-color="#DEE0DD"/>
<stop offset="1" stop-color="#FBFBFB"/>
</linearGradient>
<linearGradient id="paint2_linear_345_36" x1="83.7158" y1="107.634" x2="56.3408" y2="32.3839" gradientUnits="userSpaceOnUse">
<stop stop-color="#E1E3E1"/>
<stop offset="0.1" stop-color="#C1C5C4"/>
<stop offset="0.3" stop-color="#9BA1A2"/>
<stop offset="0.5" stop-color="#7D8487"/>
<stop offset="0.7" stop-color="#687074" stop-opacity="0"/>
<stop offset="0.8" stop-color="#5B6469" stop-opacity="0"/>
<stop offset="1" stop-color="#576065" stop-opacity="0"/>
</linearGradient>
<linearGradient id="paint3_linear_345_36" x1="52.75" y1="40.125" x2="87.25" y2="99.875" gradientUnits="userSpaceOnUse">
<stop stop-color="#E1E3E1"/>
<stop offset="0.1" stop-color="#C1C5C4"/>
<stop offset="0.3" stop-color="#9BA1A2"/>
<stop offset="0.5" stop-color="#7D8487"/>
<stop offset="0.7" stop-color="#687074" stop-opacity="0"/>
<stop offset="0.8" stop-color="#5B6469" stop-opacity="0"/>
<stop offset="1" stop-color="#576065" stop-opacity="0"/>
</linearGradient>
<linearGradient id="paint4_linear_345_36" x1="85.625" y1="79.25" x2="83.5" y2="82.75" gradientUnits="userSpaceOnUse">
<stop stop-color="#27343C"/>
<stop offset="1" stop-color="#00111E" stop-opacity="0"/>
</linearGradient>
<linearGradient id="paint5_linear_345_36" x1="79.5" y1="66.375" x2="76" y2="60.75" gradientUnits="userSpaceOnUse">
<stop offset="0.1" stop-color="#02131F"/>
<stop offset="0.9" stop-color="#02131F" stop-opacity="0"/>
</linearGradient>
<linearGradient id="paint6_linear_345_36" x1="70" y1="75.5" x2="64.75" y2="77" gradientUnits="userSpaceOnUse">
<stop offset="0.2" stop-color="#02131F"/>
<stop offset="0.9" stop-color="#02131F" stop-opacity="0"/>
</linearGradient>
<linearGradient id="paint7_linear_345_36" x1="56" y1="82.375" x2="55.25" y2="80.5" gradientUnits="userSpaceOnUse">
<stop stop-color="#02131F"/>
<stop offset="0.1" stop-color="#02131F"/>
<stop offset="1" stop-color="#02131F" stop-opacity="0"/>
</linearGradient>
<linearGradient id="paint8_linear_345_36" x1="74.5" y1="51.5" x2="70.25" y2="52" gradientUnits="userSpaceOnUse">
<stop offset="0.3" stop-color="#02131F"/>
<stop offset="0.8" stop-color="#02131F" stop-opacity="0"/>
</linearGradient>
<linearGradient id="paint9_linear_345_36" x1="74.625" y1="51.375" x2="71.75" y2="51.75" gradientUnits="userSpaceOnUse">
<stop offset="0.4" stop-color="#27343C"/>
<stop offset="1" stop-color="#3B474E" stop-opacity="0"/>
</linearGradient>
<linearGradient id="paint10_linear_345_36" x1="29.5" y1="71.125" x2="64.375" y2="91.25" gradientUnits="userSpaceOnUse">
<stop stop-color="#25323B" stop-opacity="0"/>
<stop offset="0.1" stop-color="#27343C"/>
</linearGradient>
<linearGradient id="paint11_linear_345_36" x1="70" y1="76.75" x2="70" y2="70.75" gradientUnits="userSpaceOnUse">
<stop offset="0.3" stop-color="#A5ABAF"/>
<stop offset="1" stop-color="#A5ABAF" stop-opacity="0"/>
</linearGradient>
<linearGradient id="paint12_linear_345_36" x1="89.625" y1="32.875" x2="89.625" y2="109.125" gradientUnits="userSpaceOnUse">
<stop stop-color="#6B7378"/>
<stop offset="0.2" stop-color="#333F47"/>
<stop offset="0.5" stop-color="#27343C"/>
<stop offset="0.8" stop-color="#333F47"/>
<stop offset="1" stop-color="#434D54"/>
</linearGradient>
<linearGradient id="paint13_linear_345_36" x1="101.625" y1="40.125" x2="84.75" y2="64.875" gradientUnits="userSpaceOnUse">
<stop offset="0.7" stop-color="#49545B"/>
<stop offset="0.8" stop-color="white" stop-opacity="0"/>
</linearGradient>
</defs>
</svg>
