<?xml version="1.0" encoding="utf-8"?>
<!-- Generator: Adobe Illustrator 24.2.1, SVG Export Plug-In . SVG Version: 6.00 Build 0)  -->
<svg version="1.1" id="Ebene_1" xmlns="http://www.w3.org/2000/svg" xmlns:xlink="http://www.w3.org/1999/xlink" x="0px" y="0px"
	 width="135px" height="21.8px" viewBox="0 0 135 21.8" style="enable-background:new 0 0 135 21.8;" xml:space="preserve">
<style type="text/css">
	.st0{fill:#1D1D1F;}
</style>
<g>
	<path class="st0" d="M1.2,1.3v19.3h19.3V1.3H1.2z M10.8,18.5c-4.2,0-7.6-3.4-7.6-7.6s3.4-7.6,7.6-7.6s7.6,3.4,7.6,7.6
		S15,18.5,10.8,18.5z"/>
	<g>
		<path class="st0" d="M27.6,4.8v15.7h-4.2V1.3h7.1l4.3,14.1L39,1.3h6.9v19.3h-4.3V4.9l-4.9,15.6h-4.2L27.6,4.8z"/>
		<path class="st0" d="M46.7,10.8c0-6.3,4.8-10,10-10c5.2,0,10,3.6,10,10c0,6.3-4.7,10.1-10,10.1C51.3,20.9,46.7,17.2,46.7,10.8z
			 M62,10.8c0-3.8-2.3-6.1-5.3-6.1c-3.1,0-5.3,2.4-5.3,6.1c0,3.8,2.3,6.2,5.3,6.2C59.8,17.1,62,14.7,62,10.8z"/>
		<path class="st0" d="M67.5,1.3h7.2c6.1,0,10.2,3.1,10.2,9.5c0,6.1-4.1,9.8-10.2,9.8h-7.2V1.3z M74.2,16.9c4,0,6-2.3,6-6
			c0-3.7-2.1-5.9-6-5.9H72v11.9H74.2z"/>
		<path class="st0" d="M86.5,12.9V1.3H91v11.3c0,2.9,1.6,4.5,3.9,4.5c2.4,0,3.9-1.6,3.9-4.4V1.3h4.5v11.5c0,5.2-3.5,8.1-8.4,8.1
			C89.9,20.9,86.5,18,86.5,12.9z"/>
		<path class="st0" d="M104.9,1.3h4.5v15.5h8.7v3.7h-13.2V1.3z"/>
		<path class="st0" d="M133.8,20.6h-14.2V1.3h14.1v3.6H124v4h8.9v3.5H124V17h9.9V20.6z"/>
	</g>
</g>
</svg>
