<svg width="257" height="34" viewBox="0 0 257 34" fill="none" xmlns="http://www.w3.org/2000/svg">
<path d="M46 18.7221C46 20.7031 46.6696 22.3214 48.0368 23.5212C49.404 24.7768 51.2456 25.3906 53.6172 25.3627C56.0168 25.3627 57.8862 24.7768 59.2534 23.6049C60.6206 22.433 61.2902 20.9263 61.2902 19.0569C61.2902 11.1328 50.9107 14.3415 50.9107 10.8538C50.9107 9.76558 51.8594 9.04013 53.5335 9.04013C55.3192 9.04013 56.3516 9.96089 56.3795 11.3281H60.788C60.7043 9.31915 60.0068 7.78454 58.6675 6.72427C57.3561 5.63609 55.6262 5.10596 53.5335 5.10596C51.3572 5.10596 49.6272 5.664 48.3717 6.78007C47.1161 7.86825 46.5022 9.26334 46.5022 10.9654C46.5022 19.029 56.6864 15.7645 56.6864 19.3917C56.6864 20.6194 55.5704 21.317 53.7567 21.317C51.6083 21.317 50.3248 20.2288 50.2132 18.6384H46V18.7221Z" fill="white"/>
<path d="M68.3605 25V16.7411C68.3605 15.1506 69.3929 13.923 70.8717 13.923C72.3226 13.923 73.2434 14.9553 73.2434 16.5178V25H77.5682V15.1785C77.5682 13.616 77.0938 12.3605 76.1173 11.3839C75.1686 10.4073 73.8851 9.90509 72.2947 9.90509C70.4253 9.90509 68.9744 10.77 68.3326 11.8861H68.1094V10.2678H64.0357V25H68.3605Z" fill="white"/>
<path d="M79.9289 17.7176C79.9289 20.0335 80.5428 21.875 81.7984 23.2701C83.054 24.6652 84.7002 25.3627 86.737 25.3627C89.1645 25.3627 90.3643 24.0235 90.8107 23.3259H91.0339V25H95.3308V10.2678H91.006V11.9419H90.7828C90.1131 10.9096 88.6622 9.90509 86.6254 9.90509C84.6444 9.90509 83.0261 10.6305 81.7705 12.0814C80.5428 13.5044 79.9289 15.4018 79.9289 17.7176ZM84.3095 17.6339C84.3095 15.3739 85.6767 13.8114 87.6857 13.8114C89.6946 13.8114 91.0897 15.3181 91.0897 17.6339C91.0897 19.8382 89.7504 21.4565 87.7136 21.4565C85.6767 21.4565 84.3095 19.894 84.3095 17.6339Z" fill="white"/>
<path d="M102.829 31.4175V23.3259H103.052C103.471 24.163 104.838 25.3069 107.21 25.3627C109.191 25.3627 110.781 24.6373 112.009 23.1864C113.265 21.7355 113.878 19.8661 113.878 17.5502C113.878 15.2344 113.237 13.3928 111.981 11.9977C110.725 10.6026 109.107 9.90509 107.098 9.90509C104.643 9.90509 103.415 11.2444 102.997 11.914H102.773V10.2678H98.5044V31.4175H102.829ZM102.746 17.6339C102.746 15.4018 104.085 13.8114 106.122 13.8114C108.131 13.8114 109.498 15.3181 109.498 17.6339C109.498 19.894 108.131 21.4565 106.122 21.4565C104.113 21.4565 102.746 19.9498 102.746 17.6339Z" fill="white"/>
<path d="M121.058 31.4175V23.3259H121.281C121.7 24.163 123.067 25.3069 125.439 25.3627C127.42 25.3627 129.01 24.6373 130.238 23.1864C131.493 21.7355 132.107 19.8661 132.107 17.5502C132.107 15.2344 131.466 13.3928 130.21 11.9977C128.954 10.6026 127.336 9.90509 125.327 9.90509C122.872 9.90509 121.644 11.2444 121.226 11.914H121.002V10.2678H116.733V31.4175H121.058ZM120.974 17.6339C120.974 15.4018 122.314 13.8114 124.351 13.8114C126.359 13.8114 127.727 15.3181 127.727 17.6339C127.727 19.894 126.359 21.4565 124.351 21.4565C122.342 21.4565 120.974 19.9498 120.974 17.6339Z" fill="white"/>
<path d="M141.095 18.7221C141.095 20.7031 141.765 22.3214 143.132 23.5212C144.499 24.7768 146.341 25.3906 148.713 25.3627C151.112 25.3627 152.982 24.7768 154.349 23.6049C155.716 22.433 156.386 20.9263 156.386 19.0569C156.386 11.1328 146.006 14.3415 146.006 10.8538C146.006 9.76558 146.955 9.04013 148.629 9.04013C150.415 9.04013 151.447 9.96089 151.475 11.3281H155.883C155.8 9.31915 155.102 7.78454 153.763 6.72427C152.451 5.63609 150.722 5.10596 148.629 5.10596C146.453 5.10596 144.723 5.664 143.467 6.78007C142.211 7.86825 141.598 9.26334 141.598 10.9654C141.598 19.029 151.782 15.7645 151.782 19.3917C151.782 20.6194 150.666 21.317 148.852 21.317C146.704 21.317 145.42 20.2288 145.309 18.6384H141.095V18.7221Z" fill="white"/>
<path d="M163.568 25.279L163.316 25.9766C162.87 27.0648 162.117 27.5949 161.084 27.5949H159.382V31.4175H161.335C164.321 31.4175 166.079 29.9387 167.111 27.1206L173.361 10.2678H168.785L165.716 19.615H165.493L162.256 10.2678H157.736L163.568 25.279Z" fill="white"/>
<path d="M173.771 20.4799C173.883 23.5212 175.947 25.3627 180.077 25.3627C184.178 25.3627 186.55 23.3817 186.55 20.452C186.55 13.923 177.956 16.8248 177.956 14.3973C177.956 13.616 178.793 13.0859 180.105 13.0859C181.472 13.0859 182.281 13.6718 182.42 14.5926H186.159C185.964 11.5792 183.592 9.90509 180.105 9.90509C178.235 9.90509 176.756 10.3515 175.668 11.2723C174.58 12.1651 174.05 13.2812 174.05 14.5926C174.05 20.9542 182.365 18.0245 182.365 20.6752C182.365 21.5402 181.556 22.0424 180.105 22.0424C178.682 22.0424 177.817 21.4844 177.705 20.4799H173.771Z" fill="white"/>
<path d="M190.993 13.6439V19.894C190.993 23.1306 192.891 25 196.127 25H199.113V21.4286H197.215C195.988 21.4286 195.318 20.7868 195.318 19.6708V13.6439H199.169V10.2678H195.318V6.27784H191.217V8.98432C191.217 9.76558 190.77 10.2957 190.017 10.2957H188.622V13.6439H190.993Z" fill="white"/>
<path d="M200.992 17.7176C200.908 22.0703 204.312 25.4464 208.469 25.3627C212.403 25.3627 215.138 23.4096 215.808 20.2846H211.901C211.455 21.2891 210.283 22.0424 208.637 22.0424C206.628 22.0424 205.233 20.731 205.093 18.8337H215.947V17.5781C215.947 13.4765 213.408 9.90509 208.553 9.90509C206.321 9.90509 204.507 10.6305 203.084 12.0814C201.689 13.5323 200.992 15.4018 200.992 17.7176ZM205.177 15.9598C205.372 14.4252 206.767 13.1975 208.553 13.1975C210.45 13.1975 211.79 14.3694 211.929 15.9598H205.177Z" fill="white"/>
<path d="M223.129 25V16.7132C223.129 15.1227 224.133 13.923 225.501 13.923C226.951 13.923 227.789 14.9274 227.789 16.4899V25H232.113V16.7411C232.113 15.0948 233.062 13.923 234.485 13.923C235.936 13.923 236.717 14.9274 236.717 16.6015V25H241.042V15.0948C241.042 13.5602 240.54 12.3326 239.563 11.356C238.587 10.3794 237.275 9.90509 235.685 9.90509C233.871 9.90509 232.448 10.5747 231.416 11.914H231.22C230.272 10.5747 228.849 9.90509 226.951 9.90509C225.138 9.90509 223.799 10.7421 223.101 11.8582H222.878V10.2678H218.804V25H223.129Z" fill="white"/>
<path d="M243.417 20.4799C243.528 23.5212 245.593 25.3627 249.723 25.3627C253.824 25.3627 256.196 23.3817 256.196 20.452C256.196 13.923 247.602 16.8248 247.602 14.3973C247.602 13.616 248.439 13.0859 249.75 13.0859C251.118 13.0859 251.927 13.6718 252.066 14.5926H255.805C255.61 11.5792 253.238 9.90509 249.75 9.90509C247.881 9.90509 246.402 10.3515 245.314 11.2723C244.226 12.1651 243.696 13.2812 243.696 14.5926C243.696 20.9542 252.01 18.0245 252.01 20.6752C252.01 21.5402 251.201 22.0424 249.75 22.0424C248.327 22.0424 247.462 21.4844 247.351 20.4799H243.417Z" fill="white"/>
<path d="M17.0107 0C7.62065 0 0 7.60054 0 16.9906C0 26.3807 7.60054 33.9813 16.9906 33.9813C26.3807 33.9813 33.9813 26.3807 33.9813 16.9906C34.0014 7.60054 26.3807 0 17.0107 0ZM8.50537 17.2922C8.0429 16.689 7.78151 15.8244 7.78151 14.9799C7.78151 14.1354 8.00269 13.2708 8.50537 12.6475C9.75202 11.0791 11.9839 8.26408 11.9839 8.26408H17.1113L12.4263 14.1354C12.0442 14.618 12.0442 15.3016 12.4263 15.7842L17.0912 21.6756H11.9839C11.9839 21.6756 9.75202 18.8405 8.50537 17.2922ZM25.496 21.3338C24.2493 22.9022 22.0174 25.7172 22.0174 25.7172H16.9102L21.5751 19.8459C21.9571 19.3633 21.9571 18.6796 21.5751 18.1971L16.9102 12.3056H22.0375C22.0375 12.3056 24.2695 15.1408 25.496 16.689C25.9786 17.2922 26.2199 18.1568 26.2199 19.0014C26.2199 19.866 25.9987 20.7105 25.496 21.3338Z" fill="white"/>
</svg>
