<svg width="126" height="29" viewBox="0 0 126 29" fill="none" xmlns="http://www.w3.org/2000/svg">
<path d="M39 15.7221C39 17.7031 39.6696 19.3214 41.0368 20.5212C42.404 21.7768 44.2456 22.3906 46.6172 22.3627C49.0168 22.3627 50.8862 21.7768 52.2534 20.6049C53.6206 19.433 54.2902 17.9263 54.2902 16.0569C54.2902 8.13277 43.9107 11.3415 43.9107 7.85375C43.9107 6.76558 44.8594 6.04013 46.5335 6.04013C48.3192 6.04013 49.3516 6.96089 49.3795 8.32808H53.788C53.7043 6.31915 53.0068 4.78454 51.6675 3.72427C50.3561 2.63609 48.6262 2.10596 46.5335 2.10596C44.3572 2.10596 42.6272 2.664 41.3717 3.78007C40.1161 4.86825 39.5022 6.26334 39.5022 7.96536C39.5022 16.029 49.6864 12.7645 49.6864 16.3917C49.6864 17.6194 48.5704 18.317 46.7567 18.317C44.6083 18.317 43.3248 17.2288 43.2132 15.6384H39V15.7221Z" fill="white"/>
<path d="M61.3605 22V13.7411C61.3605 12.1506 62.3929 10.923 63.8717 10.923C65.3226 10.923 66.2434 11.9553 66.2434 13.5178V22H70.5682V12.1785C70.5682 10.616 70.0938 9.36045 69.1173 8.38389C68.1686 7.40732 66.8851 6.90509 65.2947 6.90509C63.4253 6.90509 61.9744 7.77004 61.3326 8.88612H61.1094V7.26781H57.0357V22H61.3605Z" fill="white"/>
<path d="M72.9289 14.7176C72.9289 17.0335 73.5428 18.875 74.7984 20.2701C76.054 21.6652 77.7002 22.3627 79.737 22.3627C82.1645 22.3627 83.3643 21.0235 83.8107 20.3259H84.0339V22H88.3308V7.26781H84.006V8.94193H83.7828C83.1131 7.90956 81.6622 6.90509 79.6254 6.90509C77.6444 6.90509 76.0261 7.63054 74.7705 9.08143C73.5428 10.5044 72.9289 12.4018 72.9289 14.7176ZM77.3095 14.6339C77.3095 12.3739 78.6767 10.8114 80.6857 10.8114C82.6946 10.8114 84.0897 12.3181 84.0897 14.6339C84.0897 16.8382 82.7504 18.4565 80.7136 18.4565C78.6767 18.4565 77.3095 16.894 77.3095 14.6339Z" fill="white"/>
<path d="M95.8292 28.4175V20.3259H96.0524C96.471 21.163 97.8381 22.3069 100.21 22.3627C102.191 22.3627 103.781 21.6373 105.009 20.1864C106.265 18.7355 106.878 16.8661 106.878 14.5502C106.878 12.2344 106.237 10.3928 104.981 8.99773C103.725 7.60263 102.107 6.90509 100.098 6.90509C97.6428 6.90509 96.4151 8.24438 95.9966 8.91402H95.7734V7.26781H91.5044V28.4175H95.8292ZM95.7455 14.6339C95.7455 12.4018 97.0848 10.8114 99.1216 10.8114C101.131 10.8114 102.498 12.3181 102.498 14.6339C102.498 16.894 101.131 18.4565 99.1216 18.4565C97.1127 18.4565 95.7455 16.9498 95.7455 14.6339Z" fill="white"/>
<path d="M114.058 28.4175V20.3259H114.281C114.7 21.163 116.067 22.3069 118.439 22.3627C120.42 22.3627 122.01 21.6373 123.238 20.1864C124.493 18.7355 125.107 16.8661 125.107 14.5502C125.107 12.2344 124.466 10.3928 123.21 8.99773C121.954 7.60263 120.336 6.90509 118.327 6.90509C115.872 6.90509 114.644 8.24438 114.226 8.91402H114.002V7.26781H109.733V28.4175H114.058ZM113.974 14.6339C113.974 12.4018 115.314 10.8114 117.351 10.8114C119.359 10.8114 120.727 12.3181 120.727 14.6339C120.727 16.894 119.359 18.4565 117.351 18.4565C115.342 18.4565 113.974 16.9498 113.974 14.6339Z" fill="white"/>
<path d="M0 10.0046C0 11.2627 0.389404 12.5507 1.07834 13.4493C2.93549 15.7558 6.26037 19.9793 6.26037 19.9793H13.8687L6.91935 11.2028C6.35023 10.4839 6.35023 9.46544 6.91935 8.74654L13.8986 0H6.26037C6.26037 0 2.93549 4.19355 1.07834 6.52995C0.329496 7.45852 0 8.74654 0 10.0046Z" fill="white"/>
<path d="M21.2074 26C21.2074 26 24.5323 21.8064 26.3894 19.47C27.1383 18.5415 27.4677 17.2834 27.4677 15.9954C27.4677 14.7373 27.1083 13.4493 26.3894 12.5507C24.5622 10.2442 21.2373 6.02074 21.2373 6.02074H13.5991L20.5484 14.7972C21.1175 15.5161 21.1175 16.5346 20.5484 17.2535L13.5991 26H21.2074Z" fill="white"/>
</svg>
