<svg width="301" height="34" viewBox="0 0 301 34" fill="none" xmlns="http://www.w3.org/2000/svg">
<path d="M46 18.7221C46 20.7031 46.6696 22.3214 48.0368 23.5212C49.404 24.7768 51.2456 25.3906 53.6172 25.3627C56.0168 25.3627 57.8862 24.7768 59.2534 23.6049C60.6206 22.433 61.2902 20.9263 61.2902 19.0569C61.2902 11.1328 50.9107 14.3415 50.9107 10.8538C50.9107 9.76558 51.8594 9.04013 53.5335 9.04013C55.3192 9.04013 56.3516 9.96089 56.3795 11.3281H60.788C60.7043 9.31915 60.0068 7.78455 58.6675 6.72427C57.3561 5.6361 55.6262 5.10596 53.5335 5.10596C51.3572 5.10596 49.6272 5.664 48.3717 6.78008C47.1161 7.86825 46.5022 9.26335 46.5022 10.9654C46.5022 19.029 56.6864 15.7645 56.6864 19.3917C56.6864 20.6194 55.5704 21.317 53.7567 21.317C51.6083 21.317 50.3248 20.2288 50.2132 18.6384H46V18.7221Z" fill="white"/>
<path d="M68.3605 25V16.7411C68.3605 15.1506 69.3929 13.923 70.8717 13.923C72.3226 13.923 73.2434 14.9553 73.2434 16.5178V25H77.5682V15.1786C77.5682 13.616 77.0938 12.3605 76.1173 11.3839C75.1686 10.4073 73.8851 9.90509 72.2947 9.90509C70.4253 9.90509 68.9744 10.77 68.3326 11.8861H68.1094V10.2678H64.0357V25H68.3605Z" fill="white"/>
<path d="M79.9289 17.7176C79.9289 20.0335 80.5428 21.875 81.7984 23.2701C83.054 24.6652 84.7002 25.3627 86.737 25.3627C89.1645 25.3627 90.3643 24.0235 90.8107 23.3259H91.0339V25H95.3308V10.2678H91.006V11.9419H90.7828C90.1131 10.9096 88.6622 9.90509 86.6254 9.90509C84.6444 9.90509 83.0261 10.6305 81.7705 12.0814C80.5428 13.5044 79.9289 15.4018 79.9289 17.7176ZM84.3095 17.6339C84.3095 15.3739 85.6767 13.8114 87.6857 13.8114C89.6946 13.8114 91.0897 15.3181 91.0897 17.6339C91.0897 19.8382 89.7504 21.4565 87.7136 21.4565C85.6767 21.4565 84.3095 19.894 84.3095 17.6339Z" fill="white"/>
<path d="M102.829 31.4175V23.3259H103.052C103.471 24.163 104.838 25.3069 107.21 25.3627C109.191 25.3627 110.781 24.6373 112.009 23.1864C113.265 21.7355 113.878 19.8661 113.878 17.5502C113.878 15.2344 113.237 13.3928 111.981 11.9977C110.725 10.6026 109.107 9.90509 107.098 9.90509C104.643 9.90509 103.415 11.2444 102.997 11.914H102.773V10.2678H98.5044V31.4175H102.829ZM102.746 17.6339C102.746 15.4018 104.085 13.8114 106.122 13.8114C108.131 13.8114 109.498 15.3181 109.498 17.6339C109.498 19.894 108.131 21.4565 106.122 21.4565C104.113 21.4565 102.746 19.9498 102.746 17.6339Z" fill="white"/>
<path d="M121.058 31.4175V23.3259H121.281C121.7 24.163 123.067 25.3069 125.439 25.3627C127.42 25.3627 129.01 24.6373 130.238 23.1864C131.493 21.7355 132.107 19.8661 132.107 17.5502C132.107 15.2344 131.466 13.3928 130.21 11.9977C128.954 10.6026 127.336 9.90509 125.327 9.90509C122.872 9.90509 121.644 11.2444 121.226 11.914H121.002V10.2678H116.733V31.4175H121.058ZM120.974 17.6339C120.974 15.4018 122.314 13.8114 124.351 13.8114C126.359 13.8114 127.727 15.3181 127.727 17.6339C127.727 19.894 126.359 21.4565 124.351 21.4565C122.342 21.4565 120.974 19.9498 120.974 17.6339Z" fill="white"/>
<path d="M145.197 25L146.341 21.5402H153.819L154.991 25H159.678L152.954 5.46869H147.317L140.677 25H145.197ZM149.968 10.3236H150.219L152.619 17.606H147.541L149.968 10.3236Z" fill="white"/>
<path d="M160.982 20.0893C160.982 21.6518 161.456 22.9353 162.405 23.9118C163.382 24.8884 164.665 25.3627 166.255 25.3627C168.125 25.3627 169.548 24.4699 170.19 23.3817H170.413V25H174.514V10.2678H170.19V18.5268C170.19 20.1172 169.157 21.3449 167.678 21.3449C166.228 21.3449 165.307 20.3125 165.307 18.75V10.2678H160.982V20.0893Z" fill="white"/>
<path d="M179.467 13.6439V19.894C179.467 23.1306 181.365 25 184.601 25H187.587V21.4286H185.69C184.462 21.4286 183.792 20.7868 183.792 19.6708V13.6439H187.643V10.2678H183.792V6.27784H179.691V8.98433C179.691 9.76558 179.244 10.2957 178.491 10.2957H177.096V13.6439H179.467Z" fill="white"/>
<path d="M189.466 17.6339C189.466 21.9308 192.702 25.3627 197.39 25.3627C202.105 25.3627 205.342 21.9866 205.342 17.6339C205.342 15.4297 204.589 13.616 203.11 12.1372C201.631 10.6584 199.734 9.90509 197.418 9.90509C192.674 9.90509 189.466 13.2812 189.466 17.6339ZM193.846 17.6339C193.846 15.4018 195.353 13.8114 197.39 13.8114C199.427 13.8114 200.961 15.4018 200.961 17.6339C200.961 19.8661 199.427 21.4565 197.39 21.4565C195.353 21.4565 193.846 19.8661 193.846 17.6339Z" fill="white"/>
<path d="M212.502 25V16.7132C212.502 15.1227 213.507 13.923 214.874 13.923C216.325 13.923 217.162 14.9274 217.162 16.4899V25H221.487V16.7411C221.487 15.0948 222.435 13.923 223.858 13.923C225.309 13.923 226.09 14.9274 226.09 16.6015V25H230.415V15.0948C230.415 13.5602 229.913 12.3326 228.936 11.356C227.96 10.3794 226.649 9.90509 225.058 9.90509C223.244 9.90509 221.821 10.5747 220.789 11.914H220.594C219.645 10.5747 218.222 9.90509 216.325 9.90509C214.511 9.90509 213.172 10.7421 212.474 11.8582H212.251V10.2678H208.177V25H212.502Z" fill="white"/>
<path d="M232.79 17.6339C232.79 21.9308 236.027 25.3627 240.714 25.3627C245.43 25.3627 248.666 21.9866 248.666 17.6339C248.666 15.4297 247.913 13.616 246.434 12.1372C244.955 10.6584 243.058 9.90509 240.742 9.90509C235.999 9.90509 232.79 13.2812 232.79 17.6339ZM237.171 17.6339C237.171 15.4018 238.677 13.8114 240.714 13.8114C242.751 13.8114 244.286 15.4018 244.286 17.6339C244.286 19.8661 242.751 21.4565 240.714 21.4565C238.677 21.4565 237.171 19.8661 237.171 17.6339Z" fill="white"/>
<path d="M253.064 13.6439V19.894C253.064 23.1306 254.962 25 258.198 25H261.184V21.4286H259.286C258.059 21.4286 257.389 20.7868 257.389 19.6708V13.6439H261.239V10.2678H257.389V6.27784H253.287V8.98433C253.287 9.76558 252.841 10.2957 252.088 10.2957H250.693V13.6439H253.064Z" fill="white"/>
<path d="M264.206 7.97986C264.681 8.39839 265.295 8.6216 266.048 8.6216C266.801 8.6216 267.415 8.42629 267.889 8.00776C268.364 7.58923 268.587 7.00329 268.587 6.30575C268.587 5.58029 268.364 4.99436 267.889 4.57583C267.415 4.1573 266.801 3.93408 266.048 3.93408C265.295 3.93408 264.681 4.1573 264.206 4.57583C263.732 4.99436 263.509 5.5803 263.509 6.27784C263.509 6.97539 263.732 7.56133 264.206 7.97986ZM268.224 25V10.2678H263.9V25H268.224Z" fill="white"/>
<path d="M275.215 25H280.21L285.399 10.2678H280.851L277.782 19.8661H277.559L274.49 10.2678H269.998L275.215 25Z" fill="white"/>
<path d="M285.324 17.7176C285.24 22.0703 288.644 25.4465 292.802 25.3627C296.736 25.3627 299.47 23.4096 300.14 20.2846H296.234C295.787 21.2891 294.615 22.0424 292.969 22.0424C290.96 22.0424 289.565 20.731 289.426 18.8337H300.279V17.5781C300.279 13.4765 297.74 9.90509 292.885 9.90509C290.653 9.90509 288.84 10.6305 287.417 12.0814C286.022 13.5323 285.324 15.4018 285.324 17.7176ZM289.509 15.9598C289.705 14.4252 291.1 13.1975 292.885 13.1975C294.783 13.1975 296.122 14.3694 296.262 15.9598H289.509Z" fill="white"/>
<path d="M17.0107 0C7.62065 0 0 7.60054 0 16.9906C0 26.3807 7.60054 33.9813 16.9906 33.9813C26.3807 33.9813 33.9813 26.3807 33.9813 16.9906C34.0014 7.60054 26.3807 0 17.0107 0ZM8.50537 17.2922C8.0429 16.689 7.78151 15.8244 7.78151 14.9799C7.78151 14.1354 8.00269 13.2708 8.50537 12.6475C9.75202 11.0791 11.9839 8.26408 11.9839 8.26408H17.1113L12.4263 14.1354C12.0442 14.618 12.0442 15.3016 12.4263 15.7842L17.0912 21.6756H11.9839C11.9839 21.6756 9.75202 18.8405 8.50537 17.2922ZM25.496 21.3338C24.2493 22.9022 22.0174 25.7172 22.0174 25.7172H16.9102L21.5751 19.8459C21.9571 19.3633 21.9571 18.6796 21.5751 18.1971L16.9102 12.3056H22.0375C22.0375 12.3056 24.2695 15.1408 25.496 16.689C25.9786 17.2922 26.2199 18.1568 26.2199 19.0014C26.2199 19.866 25.9987 20.7105 25.496 21.3338Z" fill="white"/>
</svg>
