<svg width="241" height="28" viewBox="0 0 241 28" fill="none" xmlns="http://www.w3.org/2000/svg">
<path d="M13.9591 0C11.1982 0 8.49938 0.821085 6.20383 2.35943C3.90827 3.89776 2.1191 6.08427 1.06258 8.64243C0.00604825 11.2006 -0.270388 14.0155 0.268226 16.7313C0.806839 19.447 2.13631 21.9416 4.08852 23.8995C6.04073 25.8574 8.528 27.1908 11.2358 27.731C13.9436 28.2712 16.7503 27.9939 19.301 26.9343C21.8517 25.8747 24.0318 24.0803 25.5656 21.778C27.0994 19.4757 27.9181 16.7689 27.9181 14C27.9181 10.287 26.4474 6.72601 23.8296 4.1005C21.2118 1.475 17.6612 0 13.9591 0ZM10.1403 17.6032C9.78185 17.1449 8.25757 15.2 7.36626 14.0891C7.00158 13.5774 6.81234 12.9608 6.82695 12.332C6.80357 11.7025 6.99117 11.0833 7.3598 10.5733C8.26403 9.42996 9.78185 7.50931 10.1403 7.06559H13.712L10.1936 11.498C10.0091 11.7363 9.90897 12.0294 9.90897 12.3312C9.90897 12.6329 10.0091 12.926 10.1936 13.1644L13.7136 17.6032H10.1403ZM20.5648 17.417C19.6606 18.5603 18.1428 20.481 17.7843 20.9263H14.2126L17.731 16.4972C17.9155 16.2588 18.0156 15.9657 18.0156 15.664C18.0156 15.3622 17.9155 15.0691 17.731 14.8308L14.211 10.3919H17.7827C18.1427 10.8502 19.667 12.7951 20.5567 13.9061C20.9219 14.4164 21.1118 15.0319 21.0976 15.6599C21.121 16.2904 20.9334 16.9106 20.5648 17.4219V17.417Z" fill="#1D1D1F"/>
<path d="M35.6429 15.7214H39.0434C39.1112 16.9651 40.1027 17.8914 41.9047 17.8914C43.3918 17.8914 44.2702 17.3262 44.2702 16.3319C44.2702 13.3942 36.0482 16.008 36.0482 9.50922C36.0482 6.86469 38.0972 4.76428 41.7238 4.76428C45.013 4.76428 47.4463 6.45821 47.5819 9.80234H44.0215C43.9925 8.71732 43.1851 7.94971 41.7319 7.94971C40.3352 7.94971 39.615 8.58291 39.615 9.41853C39.615 12.2202 47.9953 9.66631 47.9953 16.0582C47.9953 18.9942 45.7654 21.1643 41.7997 21.1643C37.9632 21.1659 35.6203 18.9748 35.6429 15.7214Z" fill="#1D1D1F"/>
<path d="M50.345 9.41213H53.6341V10.2542H53.8133C54.2864 9.44452 55.4135 8.651 57.0121 8.651C59.6472 8.651 61.27 10.4324 61.27 12.9198V20.8729H57.779V14.0048C57.779 12.7854 57.0573 11.8996 55.864 11.8996C54.6707 11.8996 53.8424 12.9198 53.8424 14.1862V20.8729H50.345V9.41213Z" fill="#1D1D1F"/>
<path d="M63.28 14.9765C63.28 11.2259 65.4873 8.651 68.686 8.651C70.5558 8.651 71.6377 9.66639 72.043 10.2996H72.2238V9.41213H75.7148V20.8729H72.2497V19.5174H72.0704C71.733 20.0599 70.7415 21.1676 68.7813 21.1676C65.5099 21.166 63.28 18.7271 63.28 14.9765ZM72.29 14.9085C72.29 13.0105 71.142 11.8138 69.545 11.8138C67.9481 11.8138 66.8194 13.0785 66.8194 14.9085C66.8194 16.7384 67.9239 18.0032 69.5644 18.0032C71.205 18.0032 72.29 16.6704 72.29 14.9085Z" fill="#1D1D1F"/>
<path d="M78.3859 9.41207H81.8332V10.2768H82.0141C82.3516 9.73433 83.343 8.65741 85.3242 8.65741C88.5681 8.65741 90.7997 11.0963 90.7997 14.8469C90.7997 18.5975 88.6166 21.1659 85.4179 21.1659C83.4802 21.1659 82.4452 20.1716 82.0625 19.5157H81.8817V24.6655L78.3859 26.0696V9.41207ZM87.2667 14.9084C87.2667 13.0331 86.1639 11.8137 84.5411 11.8137C82.8747 11.8137 81.8155 13.1238 81.8155 14.9084C81.8155 16.8064 82.9458 18.0032 84.5411 18.0032C86.1364 18.0032 87.2667 16.7384 87.2667 14.9084Z" fill="#1D1D1F"/>
<path d="M93.0374 9.41207H96.4847V10.2768H96.664C97.0031 9.73433 97.9929 8.65741 99.9757 8.65741C103.22 8.65741 105.45 11.0963 105.45 14.8469C105.45 18.5975 103.265 21.1659 100.066 21.1659C98.1285 21.1659 97.0919 20.1716 96.7092 19.5157H96.5299V24.6655L93.0374 26.0679V9.41207ZM101.918 14.9084C101.918 13.0331 100.814 11.8137 99.1926 11.8137C97.5197 11.8137 96.4702 13.1238 96.4702 14.9084C96.4702 16.8064 97.6005 18.0032 99.1958 18.0032C100.791 18.0032 101.913 16.7384 101.913 14.9084H101.918Z" fill="#1D1D1F"/>
<path d="M117.199 5.05768H121.75L127.178 20.8731H123.395L122.449 18.0714H116.411L115.488 20.8731H111.839L117.199 5.05768ZM121.48 14.886L119.542 8.98966H119.339L117.38 14.886H121.48Z" fill="#1D1D1F"/>
<path d="M128.515 16.8972V9.4122H132.008V15.8122C132.008 17.0543 132.728 17.9175 133.921 17.9175C135.114 17.9175 135.949 16.9005 135.949 15.6357V9.4122H139.442V20.8729H136.13V19.5628H135.949C135.499 20.3531 134.372 21.1677 132.773 21.1677C130.138 21.166 128.515 19.3847 128.515 16.8972Z" fill="#1D1D1F"/>
<path d="M143.205 16.7383V12.1456H141.29V9.4347H142.421C143.052 9.4347 143.39 9.00393 143.39 8.37235V6.18126L146.701 5.01202V9.41202H149.81V12.1456H146.698V16.5586C146.698 17.4396 147.194 17.9804 148.229 17.9804H149.755L148.823 20.8728H147.344C144.76 20.8728 143.205 19.3586 143.205 16.7383Z" fill="#1D1D1F"/>
<path d="M151.047 14.9085C151.047 11.3846 153.614 8.651 157.467 8.651C161.274 8.651 163.864 11.3846 163.864 14.9085C163.864 18.4324 161.281 21.166 157.451 21.166C153.621 21.166 151.047 18.4324 151.047 14.9085ZM160.328 14.9085C160.328 13.1012 159.111 11.8138 157.444 11.8138C155.778 11.8138 154.583 13.1093 154.583 14.9085C154.583 16.7077 155.799 18.0032 157.444 18.0032C159.09 18.0032 160.335 16.7158 160.335 14.9085H160.328Z" fill="#1D1D1F"/>
<path d="M166.064 9.41213H169.353V10.2316H169.534C170.029 9.44128 171.064 8.651 172.642 8.651C174.219 8.651 175.367 9.25991 176.089 10.2704H176.251C177.084 9.16436 178.211 8.651 179.698 8.651C182.282 8.651 184.022 10.3676 184.022 12.8615V20.881H180.531V14.0793C180.531 12.7692 179.945 11.9109 178.729 11.9109C177.58 11.9109 176.814 12.8599 176.814 14.1927V20.8793H173.323V13.9822C173.323 12.7627 172.677 11.9044 171.476 11.9044C170.326 11.9044 169.561 12.8761 169.561 14.1716V20.881H166.064V9.41213Z" fill="#1D1D1F"/>
<path d="M186.023 14.9085C186.023 11.3846 188.592 8.651 192.444 8.651C196.258 8.651 198.842 11.3846 198.842 14.9085C198.842 18.4324 196.258 21.166 192.422 21.166C188.585 21.166 186.023 18.4324 186.023 14.9085ZM195.304 14.9085C195.304 13.1012 194.088 11.8138 192.422 11.8138C190.755 11.8138 189.561 13.1093 189.561 14.9085C189.561 16.7077 190.776 18.0032 192.422 18.0032C194.067 18.0032 195.304 16.7158 195.304 14.9085Z" fill="#1D1D1F"/>
<path d="M201.91 16.7383V12.1456H199.995V9.4347H201.125C201.757 9.4347 202.094 9.00393 202.094 8.37235V6.18126L205.406 5.01202V9.41202H208.514V12.1456H205.398V16.5586C205.398 17.4396 205.893 17.9804 206.93 17.9804H208.461L207.529 20.8728H206.052C203.46 20.8728 201.91 19.3586 201.91 16.7383Z" fill="#1D1D1F"/>
<path d="M210.373 6.64797C210.373 5.47389 211.229 4.75 212.422 4.75C213.615 4.75 214.473 5.47389 214.473 6.64797C214.473 7.82206 213.617 8.54595 212.422 8.54595C211.227 8.54595 210.373 7.82368 210.373 6.64797ZM210.688 9.41235H214.182V20.8731H210.689L210.688 9.41235Z" fill="#1D1D1F"/>
<path d="M215.688 9.39752H219.316L221.64 16.7157H221.821L224.152 9.39752H227.824L223.787 20.8728H219.751L215.688 9.39752Z" fill="#1D1D1F"/>
<path d="M228.495 14.9765C228.495 11.2518 230.974 8.651 234.6 8.651C238.521 8.651 240.575 11.5417 240.575 14.8631V15.8801H231.812C231.925 17.3943 233.028 18.4712 234.673 18.4712C236.047 18.4712 236.971 17.7943 237.308 17.0478H240.462C239.918 19.5627 237.756 21.166 234.526 21.166C231.087 21.166 228.495 18.5749 228.495 14.9765ZM237.326 13.5546C237.19 12.2899 236.155 11.3182 234.6 11.3182C233.113 11.3182 232.033 12.3806 231.875 13.5546H237.326Z" fill="#1D1D1F"/>
</svg>
