<svg width="233" height="34" viewBox="0 0 233 34" fill="none" xmlns="http://www.w3.org/2000/svg">
<path d="M46 18.7221C46 20.7031 46.6696 22.3214 48.0368 23.5212C49.404 24.7768 51.2456 25.3906 53.6172 25.3627C56.0168 25.3627 57.8862 24.7768 59.2534 23.6049C60.6206 22.433 61.2902 20.9263 61.2902 19.0569C61.2902 11.1328 50.9107 14.3415 50.9107 10.8538C50.9107 9.76558 51.8594 9.04013 53.5335 9.04013C55.3192 9.04013 56.3516 9.96089 56.3795 11.3281H60.788C60.7043 9.31915 60.0068 7.78455 58.6675 6.72427C57.3561 5.6361 55.6262 5.10596 53.5335 5.10596C51.3572 5.10596 49.6272 5.664 48.3717 6.78008C47.1161 7.86825 46.5022 9.26335 46.5022 10.9654C46.5022 19.029 56.6864 15.7645 56.6864 19.3917C56.6864 20.6194 55.5704 21.317 53.7567 21.317C51.6083 21.317 50.3248 20.2288 50.2132 18.6384H46V18.7221Z" fill="white"/>
<path d="M68.3605 25V16.7411C68.3605 15.1506 69.3929 13.923 70.8717 13.923C72.3226 13.923 73.2434 14.9553 73.2434 16.5178V25H77.5682V15.1786C77.5682 13.616 77.0938 12.3605 76.1173 11.3839C75.1686 10.4073 73.8851 9.90509 72.2947 9.90509C70.4253 9.90509 68.9744 10.77 68.3326 11.8861H68.1094V10.2678H64.0357V25H68.3605Z" fill="white"/>
<path d="M79.9289 17.7176C79.9289 20.0335 80.5428 21.875 81.7984 23.2701C83.054 24.6652 84.7002 25.3627 86.737 25.3627C89.1645 25.3627 90.3643 24.0235 90.8107 23.3259H91.0339V25H95.3308V10.2678H91.006V11.9419H90.7828C90.1131 10.9096 88.6622 9.90509 86.6254 9.90509C84.6444 9.90509 83.0261 10.6305 81.7705 12.0814C80.5428 13.5044 79.9289 15.4018 79.9289 17.7176ZM84.3095 17.6339C84.3095 15.3739 85.6767 13.8114 87.6857 13.8114C89.6946 13.8114 91.0897 15.3181 91.0897 17.6339C91.0897 19.8382 89.7504 21.4565 87.7136 21.4565C85.6767 21.4565 84.3095 19.894 84.3095 17.6339Z" fill="white"/>
<path d="M102.829 31.4175V23.3259H103.052C103.471 24.163 104.838 25.3069 107.21 25.3627C109.191 25.3627 110.781 24.6373 112.009 23.1864C113.265 21.7355 113.878 19.8661 113.878 17.5502C113.878 15.2344 113.237 13.3928 111.981 11.9977C110.725 10.6026 109.107 9.90509 107.098 9.90509C104.643 9.90509 103.415 11.2444 102.997 11.914H102.773V10.2678H98.5044V31.4175H102.829ZM102.746 17.6339C102.746 15.4018 104.085 13.8114 106.122 13.8114C108.131 13.8114 109.498 15.3181 109.498 17.6339C109.498 19.894 108.131 21.4565 106.122 21.4565C104.113 21.4565 102.746 19.9498 102.746 17.6339Z" fill="white"/>
<path d="M121.058 31.4175V23.3259H121.281C121.7 24.163 123.067 25.3069 125.439 25.3627C127.42 25.3627 129.01 24.6373 130.238 23.1864C131.493 21.7355 132.107 19.8661 132.107 17.5502C132.107 15.2344 131.466 13.3928 130.21 11.9977C128.954 10.6026 127.336 9.90509 125.327 9.90509C122.872 9.90509 121.644 11.2444 121.226 11.914H121.002V10.2678H116.733V31.4175H121.058ZM120.974 17.6339C120.974 15.4018 122.314 13.8114 124.351 13.8114C126.359 13.8114 127.727 15.3181 127.727 17.6339C127.727 19.894 126.359 21.4565 124.351 21.4565C122.342 21.4565 120.974 19.9498 120.974 17.6339Z" fill="white"/>
<path d="M146.48 25V13.5044H146.648L151.168 25H154.712L158.785 13.9509H158.953V25H163.222V5.46869H157.753L153.121 18.7221H152.954L147.68 5.46869H142.239V25H146.48Z" fill="white"/>
<path d="M166.114 17.6339C166.114 21.9308 169.351 25.3627 174.038 25.3627C178.754 25.3627 181.99 21.9866 181.99 17.6339C181.99 15.4297 181.237 13.616 179.758 12.1372C178.279 10.6584 176.382 9.90509 174.066 9.90509C169.323 9.90509 166.114 13.2812 166.114 17.6339ZM170.495 17.6339C170.495 15.4018 172.002 13.8114 174.038 13.8114C176.075 13.8114 177.61 15.4018 177.61 17.6339C177.61 19.8661 176.075 21.4565 174.038 21.4565C172.002 21.4565 170.495 19.8661 170.495 17.6339Z" fill="white"/>
<path d="M189.095 25V23.3259H189.318C189.765 24.0235 190.964 25.3627 193.42 25.3627C195.429 25.3627 197.047 24.6652 198.303 23.2701C199.558 21.875 200.2 20.0335 200.2 17.7176C200.2 15.4018 199.586 13.5044 198.33 12.0814C197.103 10.6305 195.512 9.90509 193.531 9.90509C191.439 9.90509 190.044 10.9096 189.374 11.9419H189.151V4.07359H184.826V25H189.095ZM189.067 17.6339C189.067 15.2902 190.434 13.8114 192.443 13.8114C194.452 13.8114 195.819 15.3739 195.819 17.6339C195.819 19.894 194.452 21.4565 192.443 21.4565C190.406 21.4565 189.067 19.8382 189.067 17.6339Z" fill="white"/>
<path d="M203.362 7.97986C203.836 8.39839 204.45 8.6216 205.203 8.6216C205.957 8.6216 206.57 8.42629 207.045 8.00776C207.519 7.58923 207.742 7.00329 207.742 6.30575C207.742 5.58029 207.519 4.99436 207.045 4.57583C206.57 4.1573 205.957 3.93408 205.203 3.93408C204.45 3.93408 203.836 4.1573 203.362 4.57583C202.887 4.99436 202.664 5.5803 202.664 6.27784C202.664 6.97539 202.887 7.56133 203.362 7.97986ZM207.38 25V10.2678H203.055V25H207.38Z" fill="white"/>
<path d="M210.548 20.3683C210.548 23.2701 212.222 25 215.152 25H216.631V21.2054H216.1C215.291 21.2054 214.873 20.7589 214.873 19.8661V4.07359H210.548V20.3683Z" fill="white"/>
<path d="M217.967 17.7176C217.883 22.0703 221.287 25.4465 225.445 25.3627C229.379 25.3627 232.113 23.4096 232.783 20.2846H228.877C228.43 21.2891 227.258 22.0424 225.612 22.0424C223.603 22.0424 222.208 20.731 222.069 18.8337H232.923V17.5781C232.923 13.4765 230.383 9.90509 225.529 9.90509C223.296 9.90509 221.483 10.6305 220.06 12.0814C218.665 13.5323 217.967 15.4018 217.967 17.7176ZM222.152 15.9598C222.348 14.4252 223.743 13.1975 225.529 13.1975C227.426 13.1975 228.765 14.3694 228.905 15.9598H222.152Z" fill="white"/>
<path d="M17.0107 0C7.62065 0 0 7.60054 0 16.9906C0 26.3807 7.60054 33.9813 16.9906 33.9813C26.3807 33.9813 33.9813 26.3807 33.9813 16.9906C34.0014 7.60054 26.3807 0 17.0107 0ZM8.50537 17.2922C8.0429 16.689 7.78151 15.8244 7.78151 14.9799C7.78151 14.1354 8.00269 13.2708 8.50537 12.6475C9.75202 11.0791 11.9839 8.26408 11.9839 8.26408H17.1113L12.4263 14.1354C12.0442 14.618 12.0442 15.3016 12.4263 15.7842L17.0912 21.6756H11.9839C11.9839 21.6756 9.75202 18.8405 8.50537 17.2922ZM25.496 21.3338C24.2493 22.9022 22.0174 25.7172 22.0174 25.7172H16.9102L21.5751 19.8459C21.9571 19.3633 21.9571 18.6796 21.5751 18.1971L16.9102 12.3056H22.0375C22.0375 12.3056 24.2695 15.1408 25.496 16.689C25.9786 17.2922 26.2199 18.1568 26.2199 19.0014C26.2199 19.866 25.9987 20.7105 25.496 21.3338Z" fill="white"/>
</svg>
