<?xml version="1.0" encoding="utf-8"?>
<!-- Generator: Adobe Illustrator 24.2.1, SVG Export Plug-In . SVG Version: 6.00 Build 0)  -->
<svg version="1.1" id="Ebene_1" xmlns="http://www.w3.org/2000/svg" xmlns:xlink="http://www.w3.org/1999/xlink" x="0px" y="0px"
	 width="24px" height="24px" viewBox="0 0 24 24" style="enable-background:new 0 0 24 24;" xml:space="preserve">
<style type="text/css">
	.st0{fill:#1D1D1F;}
</style>
<path class="st0" d="M24,4.4c-0.9,0.4-1.9,0.7-2.8,0.8c1-0.6,1.8-1.6,2.2-2.8c-1,0.6-2,1-3.1,1.2C19.3,2.6,18,2,16.6,2
	c-2.8,0-5,2.3-4.9,5c0,0.4,0.1,0.8,0.1,1.2C7.8,8,4.1,6.1,1.7,2.9C0.4,5.2,1,8.2,3.2,9.7C2.4,9.6,1.7,9.4,1,9v0.1
	c0,2.4,1.7,4.5,4,4.9c-0.7,0.2-1.5,0.2-2.2,0.1c0.6,2,2.5,3.5,4.6,3.5c-2,1.7-4.7,2.4-7.3,2.1C2.2,21.2,4.9,22,7.6,22
	c9.1,0,14-7.7,14-14.4V7C22.5,6.3,23.3,5.4,24,4.4z"/>
</svg>
