<svg width="140" height="140" viewBox="0 0 140 140" fill="none" xmlns="http://www.w3.org/2000/svg">
<path d="M70 106.32C50.08 106.32 33.76 89.92 33.76 70C33.76 65.52 34.56 61.28 36.08 57.28L57.28 99.92C57.52 100.48 57.92 100.96 58.56 100.96C59.2 100.96 59.6 100.48 59.84 99.92L69.6 78.08C69.68 77.84 69.84 77.6 70.08 77.6C70.32 77.6 70.4 77.84 70.56 78.08L80.32 99.92C80.56 100.48 80.96 100.96 81.6 100.96C82.24 100.96 82.64 100.48 82.88 99.92L104.08 57.28C105.6 61.28 106.4 65.52 106.4 70C106.24 89.92 89.92 106.32 70 106.32V106.32ZM70 61.76C69.76 61.76 69.68 61.52 69.52 61.28L58.16 35.68C61.84 34.32 65.84 33.6 70 33.6C74.16 33.6 78.16 34.32 81.84 35.68L70.48 61.28C70.32 61.6 70.24 61.76 70 61.76ZM58.4 88.08C58.16 88.08 58.08 87.84 57.92 87.6L39.52 50.48C42.8 45.44 47.2 41.2 52.56 38.24L65.84 67.76C66 68.24 66.4 68.4 66.8 68.4H73.2C73.68 68.4 74 68.32 74.24 67.76L87.52 38.24C92.8 41.2 97.28 45.44 100.56 50.48L82 87.6C81.92 87.84 81.76 88.08 81.52 88.08C81.28 88.08 81.2 87.84 81.04 87.6L74.08 71.76C73.84 71.2 73.52 71.12 73.04 71.12H66.64C66.16 71.12 65.84 71.2 65.6 71.76L58.88 87.6C58.8 87.84 58.64 88.08 58.4 88.08ZM70 110C92.16 110 110 92.16 110 70C110 47.84 92.16 30 70 30C47.84 30 30 47.84 30 70C30 92.16 47.84 110 70 110Z" fill="#1D1D1F"/>
</svg>
