<svg width="169" height="48" viewBox="0 0 169 48" fill="none" xmlns="http://www.w3.org/2000/svg">
<path d="M125.852 26.1533C120.835 26.1533 118.599 28.7969 118.467 31.8105H122.516C122.648 30.1715 123.687 29.3961 125.826 29.3961C127.736 29.3961 128.704 30.1979 128.704 31.4404C128.704 32.7445 127.401 32.9825 124.558 33.379C120.747 33.9165 117.675 35.1237 117.675 38.904C117.675 42.3142 120.148 44.1558 123.66 44.1558C127.639 44.1558 129.311 41.2127 129.311 41.2127V43.7505H133.078V32.2423C132.99 28.3739 130.904 26.1533 125.852 26.1533ZM128.801 37.6968C128.801 39.371 127.366 40.9748 124.752 40.9748C123.15 40.9748 122.076 40.402 122.076 38.7983C122.076 37.1945 123.247 36.657 125.623 36.1195C126.759 35.8551 128 35.5819 128.801 35.1149V37.6968V37.6968Z" fill="white"/>
<path d="M24.3286 9.0321C24.3286 3.94769 27.7702 0 32.7874 0C38.3063 0 41.2462 4.22085 41.2462 10.3451H28.8089C29.1434 12.9886 30.6133 14.6276 33.1923 14.6276C34.9615 14.6276 36.0002 13.8257 36.5019 12.5216H40.9822C40.3484 15.5705 37.6374 18.1435 33.2275 18.1435C27.5414 18.1435 24.3286 14.1606 24.3286 9.0321ZM28.8793 7.19043H36.5019C36.3699 5.01391 34.9263 3.5071 32.8578 3.5071C30.4461 3.51591 29.2754 4.95223 28.8793 7.19043Z" fill="white"/>
<path d="M70.276 3.20755H70.3728C71.4115 1.26895 72.5821 0.264404 74.589 0.264404C75.0907 0.264404 75.39 0.299652 75.6629 0.396581V4.37952H75.566C72.5909 4.07991 70.452 5.64841 70.452 9.27007V17.6413H65.9014V0.467076H70.2848V3.20755H70.276Z" fill="white"/>
<path d="M76.0498 9.0321C76.0498 3.94769 79.4914 0 84.5086 0C90.0275 0 92.9674 4.22085 92.9674 10.3451H80.5301C80.8645 12.9886 82.3345 14.6276 84.9135 14.6276C86.6827 14.6276 87.7214 13.8257 88.2231 12.5216H92.7033C92.0696 15.5705 89.3585 18.1435 84.9487 18.1435C79.2538 18.1435 76.0498 14.1606 76.0498 9.0321ZM80.5917 7.19043H88.2143C88.0822 5.01391 86.6387 3.5071 84.5702 3.5071C82.1672 3.51591 80.9966 4.95223 80.5917 7.19043Z" fill="white"/>
<path d="M0.0708008 44.2966H15.2808V47.8918H0.0708008V44.2966V44.2966Z" fill="#FC3C3A"/>
<path d="M16.1606 38.2343H20.3768C20.6761 40.2081 22.0844 41.0805 24.1177 41.0805C26.1246 41.0805 27.2601 40.3139 27.2601 39.1067C27.2601 37.4677 25.086 37.3003 22.7446 36.8332C19.6727 36.234 16.6624 35.3969 16.6624 31.6431C16.6624 27.9245 19.7343 26.1533 23.6512 26.1533C28.1667 26.1533 30.6753 28.4003 31.0098 31.8457H26.8992C26.6967 30.0041 25.5261 29.3344 23.5896 29.3344C21.8204 29.3344 20.6497 30.0041 20.6497 31.2465C20.6497 32.7181 22.9206 32.8503 25.3676 33.3526C28.2459 33.9518 31.4235 34.7625 31.4235 38.7718C31.4235 42.2172 28.4836 44.2968 24.2057 44.2968C19.2062 44.2968 16.4335 41.8824 16.1606 38.2343Z" fill="white"/>
<path d="M46.3081 38.2343H50.5243C50.8236 40.2081 52.2319 41.0805 54.2652 41.0805C56.2721 41.0805 57.4075 40.3139 57.4075 39.1067C57.4075 37.4677 55.2334 37.3003 52.8921 36.8332C49.8201 36.234 46.8098 35.3969 46.8098 31.6431C46.8098 27.9245 49.8818 26.1533 53.7987 26.1533C58.3142 26.1533 60.8227 28.4003 61.1572 31.8457H57.0378C56.8354 30.0041 55.6647 29.3344 53.7283 29.3344C51.959 29.3344 50.7884 30.0041 50.7884 31.2465C50.7884 32.7181 53.0593 32.8503 55.5063 33.3526C58.3846 33.9518 61.5533 34.7625 61.5533 38.7718C61.5533 42.2172 58.6134 44.2968 54.3356 44.2968C49.3536 44.2968 46.5722 41.8824 46.3081 38.2343Z" fill="white"/>
<path d="M61.9404 26.6203H64.317V22.9546H68.762V26.6203H71.7019V29.6339H68.762V38.7365C68.762 40.0054 69.4662 40.446 70.4696 40.446C71.0418 40.446 71.8076 40.4108 71.8076 40.4108V43.7593C71.8076 43.7593 70.7689 43.8297 68.9645 43.8297C66.7552 43.8297 64.317 42.9574 64.317 39.7146V29.6339H61.9404V26.6203V26.6203Z" fill="white"/>
<path d="M72.1768 35.1852C72.1768 30.1008 75.6184 26.1443 80.6355 26.1443C86.1544 26.1443 89.0943 30.3651 89.0943 36.4894H76.657C76.9915 39.1329 78.4614 40.7719 81.0404 40.7719C82.8096 40.7719 83.8483 39.97 84.35 38.6659H88.8302C88.1965 41.7148 85.4855 44.2878 81.0756 44.2878C75.3895 44.2966 72.1768 40.3137 72.1768 35.1852ZM76.7274 33.3435H84.35C84.218 31.167 82.7744 29.6602 80.706 29.6602C78.303 29.669 77.1323 31.1053 76.7274 33.3435Z" fill="white"/>
<path d="M90.8818 26.6203H95.2653V28.929H95.3621C96.2951 27.3517 97.9675 26.1533 100.344 26.1533C102.518 26.1533 104.252 27.3605 105.088 29.167H105.159C106.329 27.29 108.134 26.1533 110.308 26.1533C113.917 26.1533 115.959 28.4973 115.959 32.2423V43.7945H111.408V33.0089C111.408 31.0703 110.44 30.0658 108.768 30.0658C106.858 30.0658 105.696 31.5373 105.696 33.8108V43.7945H101.145V33.0089C101.145 31.0703 100.177 30.0658 98.5044 30.0658C96.6648 30.0658 95.4325 31.5373 95.4325 33.8108V43.7945H90.8818V26.6203V26.6203Z" fill="white"/>
<path d="M134.091 26.6203H136.467V22.9546H140.912V26.6203H143.852V29.6339H140.912V38.7365C140.912 40.0054 141.617 40.446 142.62 40.446C143.192 40.446 143.958 40.4108 143.958 40.4108V43.7593C143.958 43.7593 142.919 43.8297 141.115 43.8297C138.906 43.8297 136.467 42.9574 136.467 39.7146V29.6339H134.091V26.6203V26.6203Z" fill="white"/>
<path d="M146.15 26.6204H150.701V43.7946H146.15V26.6204Z" fill="white"/>
<path d="M152.487 35.2205C152.487 30.1008 155.832 26.1443 161.043 26.1443C165.488 26.1443 168.234 28.7261 168.833 32.4359H164.388C164.088 30.9291 162.918 29.7924 161.245 29.7924C158.508 29.7924 157.1 31.8984 157.1 35.2116C157.1 38.4544 158.402 40.6309 161.175 40.6309C163.015 40.6309 164.317 39.6616 164.617 37.723H169C168.701 41.3711 165.858 44.2878 161.281 44.2878C155.859 44.2966 152.487 40.3401 152.487 35.2205Z" fill="white"/>
<path d="M20.2272 0.467041L18.0531 8.43292C17.6834 9.84281 17.2873 11.6492 17.2873 11.6492H17.2169C17.2169 11.6492 16.7856 9.84281 16.4159 8.40648L14.1802 0.475853H10.2984L8.15953 8.40648C7.78984 9.81637 7.42016 11.6492 7.42016 11.6492H7.34974C7.34974 11.6492 6.94484 9.84281 6.58396 8.43292L4.51547 0.467041H0L5.01719 17.6413H9.12776L11.4691 9.20836C11.6804 8.41529 11.918 7.54292 12.0765 6.94372H12.5166C12.6662 7.53411 12.8951 8.41529 13.1063 9.20836L15.3772 17.6413H19.523L24.637 0.467041H20.2272Z" fill="white"/>
<path d="M42.1267 26.2942L40.0935 32.8149C39.7326 33.8812 39.3981 35.2294 39.222 35.9784H38.87C38.6675 35.2205 38.289 33.8812 37.9193 32.8149L35.7716 26.2942H31.0537L35.2083 37.3089C36.1765 39.9172 36.511 41.0275 36.511 41.9616C36.511 43.3715 35.7716 44.3055 33.9672 44.3055L31.3794 44.2967V47.8743L35.0411 47.8831C38.5179 47.8831 39.7854 46.5085 41.0969 42.693L46.6686 26.2942H42.1267Z" fill="white"/>
<path d="M56.078 0.0615234C51.0609 0.0615234 48.8251 2.70506 48.6931 5.7187H52.7421C52.8741 4.07971 53.9127 3.30427 56.0516 3.30427C57.9617 3.30427 58.9299 4.10614 58.9299 5.3486C58.9299 6.65275 57.6272 6.89067 54.7841 7.2872C50.964 7.83353 47.8833 9.03194 47.8833 12.821C47.8833 16.2312 50.3567 18.0728 53.8687 18.0728C57.8473 18.0728 59.5197 15.1297 59.5197 15.1297V17.6675H63.2869V6.15929C63.2077 2.29091 61.1216 0.0615234 56.078 0.0615234ZM59.0179 11.6138C59.0179 13.288 57.5832 14.8918 54.969 14.8918C53.367 14.8918 52.2931 14.319 52.2931 12.7153C52.2931 11.1115 53.4638 10.574 55.8404 10.0365C56.9759 9.77213 58.2169 9.49896 59.0179 9.03194V11.6138Z" fill="white"/>
<path d="M150.701 19.0068H146.15V22.9545H150.701V19.0068Z" fill="#54EABF"/>
</svg>
